<?xml version="1.0" encoding="UTF-8"?>
<!DOCTYPE svg PUBLIC "-//W3C//DTD SVG 1.1//EN" "http://www.w3.org/Graphics/SVG/1.1/DTD/svg11.dtd">
<svg xmlns="http://www.w3.org/2000/svg" version="1.1" width="421px" height="233px" style="shape-rendering:geometricPrecision; text-rendering:geometricPrecision; image-rendering:optimizeQuality; fill-rule:evenodd; clip-rule:evenodd" xmlns:xlink="http://www.w3.org/1999/xlink">
<g><path style="opacity:1" fill="#385b66" d="M -0.5,-0.5 C 139.833,-0.5 280.167,-0.5 420.5,-0.5C 420.5,77.1667 420.5,154.833 420.5,232.5C 280.167,232.5 139.833,232.5 -0.5,232.5C -0.5,154.833 -0.5,77.1667 -0.5,-0.5 Z"/></g>
<g><path style="opacity:1" fill="#b6d3a1" d="M 194.5,57.5 C 193.527,57.9867 192.527,58.4867 191.5,59C 193.473,59.4955 195.473,59.6621 197.5,59.5C 197.194,62.3854 197.527,65.0521 198.5,67.5C 200.388,65.0122 201.055,62.0122 200.5,58.5C 204.554,58.7895 205.054,58.1229 202,56.5C 200,53.1667 200,49.8333 202,46.5C 203.586,43.6595 205.42,40.9928 207.5,38.5C 210.77,42.5415 213.104,47.0415 214.5,52C 214.402,54.8729 213.068,56.8729 210.5,58C 211.793,58.49 213.127,58.6567 214.5,58.5C 213.945,62.0122 214.612,65.0122 216.5,67.5C 217.473,65.0521 217.806,62.3854 217.5,59.5C 219.199,59.6602 220.866,59.4935 222.5,59C 221.956,58.2828 221.289,57.7828 220.5,57.5C 218.185,56.217 216.852,54.217 216.5,51.5C 218.363,46.8026 220.863,42.4693 224,38.5C 228.581,43.3151 230.581,48.9818 230,55.5C 226.7,57.557 226.867,58.557 230.5,58.5C 229.331,64.3268 231.164,68.6602 236,71.5C 237.932,75.2322 237.932,78.8988 236,82.5C 235.501,88.4908 235.334,94.4908 235.5,100.5C 216.833,100.5 198.167,100.5 179.5,100.5C 179.974,92.6325 179.307,84.9659 177.5,77.5C 177.256,72.9834 179.256,69.9834 183.5,68.5C 184.487,65.2317 184.82,61.8984 184.5,58.5C 188.133,58.557 188.3,57.557 185,55.5C 184.419,48.9818 186.419,43.3151 191,38.5C 194.137,42.4693 196.637,46.8026 198.5,51.5C 198.148,54.217 196.815,56.217 194.5,57.5 Z"/></g>
<g><path style="opacity:1" fill="#47696d" d="M 223.5,47.5 C 225.539,48.911 226.539,50.911 226.5,53.5C 224.833,53.5 223.167,53.5 221.5,53.5C 221.253,51.1417 221.919,49.1417 223.5,47.5 Z"/></g>
<g><path style="opacity:1" fill="#3e6169" d="M 206.5,47.5 C 208.969,48.6067 209.969,50.6067 209.5,53.5C 208.167,53.5 206.833,53.5 205.5,53.5C 205.517,51.4352 205.85,49.4352 206.5,47.5 Z"/></g>
<g><path style="opacity:1" fill="#48696d" d="M 190.5,47.5 C 192.975,48.6874 193.975,50.6874 193.5,53.5C 191.833,53.5 190.167,53.5 188.5,53.5C 188.604,51.2972 189.27,49.2972 190.5,47.5 Z"/></g>
<g><path style="opacity:1" fill="#91b090" d="M 194.5,57.5 C 195.568,58.4345 196.901,58.7678 198.5,58.5C 198.5,61.5 198.5,64.5 198.5,67.5C 197.527,65.0521 197.194,62.3854 197.5,59.5C 195.473,59.6621 193.473,59.4955 191.5,59C 192.527,58.4867 193.527,57.9867 194.5,57.5 Z"/></g>
<g><path style="opacity:1" fill="#91b08f" d="M 220.5,57.5 C 221.289,57.7828 221.956,58.2828 222.5,59C 220.866,59.4935 219.199,59.6602 217.5,59.5C 217.806,62.3854 217.473,65.0521 216.5,67.5C 216.5,64.5 216.5,61.5 216.5,58.5C 218.099,58.7678 219.432,58.4345 220.5,57.5 Z"/></g>
<g><path style="opacity:1" fill="#385b66" d="M 189.5,63.5 C 190.833,63.5 192.167,63.5 193.5,63.5C 193.5,64.8333 193.5,66.1667 193.5,67.5C 193.5,66.1667 193.5,64.8333 193.5,63.5C 192.167,63.5 190.833,63.5 189.5,63.5 Z"/></g>
<g><path style="opacity:1" fill="#385b66" d="M 225.5,63.5 C 225.5,64.8333 225.5,66.1667 225.5,67.5C 224.167,67.5 222.833,67.5 221.5,67.5C 221.5,66.1667 221.5,64.8333 221.5,63.5C 222.833,63.5 224.167,63.5 225.5,63.5 Z"/></g>
<g><path style="opacity:1" fill="#759583" d="M 189.5,63.5 C 189.5,64.8333 189.5,66.1667 189.5,67.5C 190.833,67.5 192.167,67.5 193.5,67.5C 192.081,68.4511 190.415,68.7845 188.5,68.5C 188.216,66.5853 188.549,64.9187 189.5,63.5 Z"/></g>
<g><path style="opacity:1" fill="#88a78c" d="M 205.5,63.5 C 205.5,64.8333 205.5,66.1667 205.5,67.5C 206.833,67.5 208.167,67.5 209.5,67.5C 209.5,66.1667 209.5,64.8333 209.5,63.5C 210.451,64.9187 210.784,66.5853 210.5,68.5C 208.5,68.5 206.5,68.5 204.5,68.5C 204.216,66.5853 204.549,64.9187 205.5,63.5 Z"/></g>
<g><path style="opacity:1" fill="#385b65" d="M 205.5,63.5 C 206.833,63.5 208.167,63.5 209.5,63.5C 209.5,64.8333 209.5,66.1667 209.5,67.5C 208.167,67.5 206.833,67.5 205.5,67.5C 205.5,66.1667 205.5,64.8333 205.5,63.5 Z"/></g>
<g><path style="opacity:1" fill="#759583" d="M 225.5,63.5 C 226.451,64.9187 226.784,66.5853 226.5,68.5C 224.585,68.7845 222.919,68.4511 221.5,67.5C 222.833,67.5 224.167,67.5 225.5,67.5C 225.5,66.1667 225.5,64.8333 225.5,63.5 Z"/></g>
<g><path style="opacity:1" fill="#3d6068" d="M 184.5,72.5 C 199.837,72.3334 215.17,72.5001 230.5,73C 235.204,79.3209 233.538,81.9875 225.5,81C 224.663,79.9887 224.33,78.8221 224.5,77.5C 222.5,77.5 220.5,77.5 218.5,77.5C 218.845,80.488 217.512,81.8213 214.5,81.5C 211.488,81.8213 210.155,80.488 210.5,77.5C 208.5,77.5 206.5,77.5 204.5,77.5C 204.845,80.488 203.512,81.8213 200.5,81.5C 197.488,81.8213 196.155,80.488 196.5,77.5C 194.5,77.5 192.5,77.5 190.5,77.5C 190.67,78.8221 190.337,79.9887 189.5,81C 181.208,81.89 179.542,79.0567 184.5,72.5 Z"/></g>
<g><path style="opacity:1" fill="#3a5d67" d="M 192.5,83.5 C 197.433,87.4833 202.433,87.4833 207.5,83.5C 212.095,87.4226 216.762,87.4226 221.5,83.5C 224.028,85.8738 227.028,86.8738 230.5,86.5C 230.5,89.5 230.5,92.5 230.5,95.5C 215.167,95.5 199.833,95.5 184.5,95.5C 184.5,92.5 184.5,89.5 184.5,86.5C 187.831,86.9819 190.497,85.9819 192.5,83.5 Z"/></g>
<g><path style="opacity:1" fill="#bcdaa4" d="M 162.5,93.5 C 162.5,95.5 162.5,97.5 162.5,99.5C 117.833,99.5 73.1667,99.5 28.5,99.5C 28.5,97.5 28.5,95.5 28.5,93.5C 73.1667,93.5 117.833,93.5 162.5,93.5 Z"/></g>
<g><path style="opacity:1" fill="#bcdaa4" d="M 252.5,93.5 C 297.167,93.5 341.833,93.5 386.5,93.5C 386.5,95.5 386.5,97.5 386.5,99.5C 341.833,99.5 297.167,99.5 252.5,99.5C 252.5,97.5 252.5,95.5 252.5,93.5 Z"/></g>
<g><path style="opacity:1" fill="#9bb994" d="M 162.5,93.5 C 117.833,93.5 73.1667,93.5 28.5,93.5C 28.5,95.5 28.5,97.5 28.5,99.5C 73.1667,99.5 117.833,99.5 162.5,99.5C 117.67,100.499 72.6698,100.832 27.5,100.5C 27.5,97.8333 27.5,95.1667 27.5,92.5C 72.6698,92.1679 117.67,92.5013 162.5,93.5 Z"/></g>
<g><path style="opacity:1" fill="#9bb994" d="M 252.5,93.5 C 297.33,92.5013 342.33,92.1679 387.5,92.5C 387.5,95.1667 387.5,97.8333 387.5,100.5C 342.33,100.832 297.33,100.499 252.5,99.5C 297.167,99.5 341.833,99.5 386.5,99.5C 386.5,97.5 386.5,95.5 386.5,93.5C 341.833,93.5 297.167,93.5 252.5,93.5 Z"/></g>
<g><path style="opacity:1" fill="#b9d6a3" d="M 239.5,132.5 C 242.833,132.5 246.167,132.5 249.5,132.5C 249.5,149.167 249.5,165.833 249.5,182.5C 246.167,182.5 242.833,182.5 239.5,182.5C 239.5,165.833 239.5,149.167 239.5,132.5 Z"/></g>
<g><path style="opacity:1" fill="#b6d3a1" d="M 157.5,133.5 C 165.49,133.086 167.49,136.253 163.5,143C 154.91,143.612 152.91,140.445 157.5,133.5 Z"/></g>
<g><path style="opacity:1" fill="#b6d3a1" d="M 262.5,133.5 C 270.49,133.086 272.49,136.253 268.5,143C 259.91,143.612 257.91,140.445 262.5,133.5 Z"/></g>
<g><path style="opacity:1" fill="#b8d5a2" d="M 190.5,146.5 C 197.591,144.967 202.757,147.3 206,153.5C 206.5,163.161 206.666,172.828 206.5,182.5C 203.167,182.5 199.833,182.5 196.5,182.5C 196.666,173.827 196.5,165.16 196,156.5C 192.738,153.923 189.405,153.923 186,156.5C 185.5,165.16 185.334,173.827 185.5,182.5C 182.167,182.5 178.833,182.5 175.5,182.5C 175.5,170.833 175.5,159.167 175.5,147.5C 179.434,147.021 183.101,147.688 186.5,149.5C 187.901,148.479 189.235,147.479 190.5,146.5 Z"/></g>
<g><path style="opacity:1" fill="#b8d5a2" d="M 327.5,146.5 C 343.349,145.349 350.349,152.682 348.5,168.5C 341.137,168.169 333.803,168.503 326.5,169.5C 328.665,175.123 332.665,176.956 338.5,175C 340.286,174.215 341.786,173.049 343,171.5C 344.333,172.833 345.667,174.167 347,175.5C 347.711,177.367 347.211,178.867 345.5,180C 335.638,185.653 326.805,184.486 319,176.5C 315.711,168.807 315.711,161.14 319,153.5C 321.441,150.546 324.275,148.213 327.5,146.5 Z"/></g>
<g><path style="opacity:1" fill="#b9d6a3" d="M 64.5,147.5 C 74.1667,147.5 83.8333,147.5 93.5,147.5C 93.6621,149.527 93.4955,151.527 93,153.5C 87.4689,160.064 82.3022,166.898 77.5,174C 82.8229,174.499 88.1563,174.666 93.5,174.5C 93.5,177.167 93.5,179.833 93.5,182.5C 83.8333,182.5 74.1667,182.5 64.5,182.5C 64.2114,179.351 64.7114,176.351 66,173.5C 70.5,167.833 75,162.167 79.5,156.5C 74.544,155.506 69.544,155.173 64.5,155.5C 64.5,152.833 64.5,150.167 64.5,147.5 Z"/></g>
<g><path style="opacity:1" fill="#b6d3a1" d="M 100.5,147.5 C 103.5,147.5 106.5,147.5 109.5,147.5C 110.934,153.834 112.434,160.167 114,166.5C 115.734,160.464 117.568,154.464 119.5,148.5C 122.372,147.217 125.205,147.217 128,148.5C 129.667,154.5 131.333,160.5 133,166.5C 134.82,160.575 136.32,154.575 137.5,148.5C 140.833,147.167 144.167,147.167 147.5,148.5C 144.182,159.405 141.182,170.405 138.5,181.5C 135.572,182.484 132.572,182.817 129.5,182.5C 128.002,176.009 126.002,169.676 123.5,163.5C 120.711,169.537 118.711,175.87 117.5,182.5C 114.5,182.5 111.5,182.5 108.5,182.5C 105.361,170.943 102.694,159.276 100.5,147.5 Z"/></g>
<g><path style="opacity:1" fill="#b9d6a3" d="M 155.5,147.5 C 158.833,147.5 162.167,147.5 165.5,147.5C 165.5,159.167 165.5,170.833 165.5,182.5C 162.167,182.5 158.833,182.5 155.5,182.5C 155.5,170.833 155.5,159.167 155.5,147.5 Z"/></g>
<g><path style="opacity:1" fill="#b9d6a3" d="M 260.5,147.5 C 263.833,147.5 267.167,147.5 270.5,147.5C 270.5,159.167 270.5,170.833 270.5,182.5C 267.167,182.5 263.833,182.5 260.5,182.5C 260.5,170.833 260.5,159.167 260.5,147.5 Z"/></g>
<g><path style="opacity:1" fill="#b7d4a2" d="M 277.5,148.5 C 280.962,147.518 284.629,147.185 288.5,147.5C 290.224,154.51 292.058,161.51 294,168.5C 295.998,161.845 297.998,155.178 300,148.5C 303.455,147.209 306.955,147.209 310.5,148.5C 306.405,159.783 302.738,171.117 299.5,182.5C 296.102,182.82 292.768,182.487 289.5,181.5C 285.847,170.193 281.847,159.193 277.5,148.5 Z"/></g>
<g><path style="opacity:1" fill="#3b5e67" d="M 329.5,154.5 C 335.55,153.325 338.55,155.658 338.5,161.5C 334.5,161.5 330.5,161.5 326.5,161.5C 326.688,158.794 327.688,156.461 329.5,154.5 Z"/></g>
<g><path style="opacity:1" fill="#b4d1a0" d="M 219.5,172.5 C 225.337,171.518 228.17,173.851 228,179.5C 224.333,183.5 220.667,183.5 217,179.5C 216.333,178.167 216.333,176.833 217,175.5C 218.045,174.627 218.878,173.627 219.5,172.5 Z"/></g>
</svg>
