<svg id="Layer_1" data-name="Layer 1" xmlns="http://www.w3.org/2000/svg" viewBox="0 0 43.94 43.94"><defs><style>.cls-1{fill:#d94a37;}</style></defs><path class="cls-1" d="M34.72,31.7l1.82,1.47a19.94,19.94,0,1,1,1-20.79l-2,1.17a17.62,17.62,0,1,0-.8,18.15Zm4.57-10.63V16.53H36.23v4.54H31.7v3.06h4.53v4.53h3.06V24.13h4.54V21.07ZM14.84,30.89V14.24h-5l-1.18,1v2.62h2.38v13Zm4.84-9.1a4.41,4.41,0,0,1-1.94-3.53c0-2.64,2.64-4.77,5.89-4.77s5.89,2.13,5.89,4.77a4.38,4.38,0,0,1-1.94,3.53,5.11,5.11,0,0,1,2.68,4.31c0,3-3,5.37-6.63,5.37S17,29.07,17,26.1A5.13,5.13,0,0,1,19.68,21.79Zm1.46-3.53a2.29,2.29,0,0,0,2.49,2,2.3,2.3,0,0,0,2.5-2,2.3,2.3,0,0,0-2.5-2A2.29,2.29,0,0,0,21.14,18.26Zm-.31,7.84a2.57,2.57,0,0,0,2.8,2.27,2.58,2.58,0,0,0,2.81-2.27,2.59,2.59,0,0,0-2.81-2.27A2.58,2.58,0,0,0,20.83,26.1Z"/></svg>