<svg id="Layer_1" data-name="Layer 1" xmlns="http://www.w3.org/2000/svg" viewBox="0 0 89.49 45.08"><defs><style>.cls-1{fill:#050505;}.cls-2{fill:#fff;}.cls-3{fill:#ffd109;}.cls-4{fill:#06ef79;}.cls-5{fill:#f93646;}.cls-6{fill:#05d5fb;}</style></defs><rect class="cls-1" width="89.49" height="45.08" rx="2.41"/><path class="cls-2" d="M29.38,25.37h1.25V28.2a4,4,0,0,1-1.28.67,5,5,0,0,1-1.5.23,4.07,4.07,0,0,1-2-.47A3.55,3.55,0,0,1,24,25.45a3.62,3.62,0,0,1,.5-1.88,3.57,3.57,0,0,1,1.37-1.3,4.15,4.15,0,0,1,2-.47,4.46,4.46,0,0,1,1.63.29,3.25,3.25,0,0,1,1.22.87l-.83.81a2.66,2.66,0,0,0-2-.81,2.75,2.75,0,0,0-1.33.31,2.27,2.27,0,0,0-.91.88,2.69,2.69,0,0,0,0,2.58,2.36,2.36,0,0,0,.91.89,2.74,2.74,0,0,0,1.32.32,2.85,2.85,0,0,0,1.46-.36Z"/><path class="cls-2" d="M33.2,28.71a2.46,2.46,0,0,1-1-1,2.95,2.95,0,0,1,0-2.86,2.56,2.56,0,0,1,1-1,3.22,3.22,0,0,1,3,0,2.56,2.56,0,0,1,1,1,2.95,2.95,0,0,1,0,2.86,2.46,2.46,0,0,1-1,1,3.22,3.22,0,0,1-3,0Zm2.63-1.19a1.87,1.87,0,0,0,0-2.46,1.68,1.68,0,0,0-2.31,0,1.91,1.91,0,0,0,0,2.46,1.68,1.68,0,0,0,2.31,0Z"/><path class="cls-2" d="M39.73,28.71a2.52,2.52,0,0,1-1-1,2.95,2.95,0,0,1,0-2.86,2.63,2.63,0,0,1,1-1,3.24,3.24,0,0,1,3,0,2.63,2.63,0,0,1,1,1,2.95,2.95,0,0,1,0,2.86,2.52,2.52,0,0,1-1,1,3.24,3.24,0,0,1-3,0Zm2.64-1.19a1.91,1.91,0,0,0,0-2.46,1.56,1.56,0,0,0-1.16-.46,1.54,1.54,0,0,0-1.15.46,1.91,1.91,0,0,0,0,2.46,1.54,1.54,0,0,0,1.15.46A1.56,1.56,0,0,0,42.37,27.52Z"/><path class="cls-2" d="M50.69,23.58v4.6c0,1.9-1,2.85-2.92,2.85a5.51,5.51,0,0,1-1.48-.19,3.32,3.32,0,0,1-1.16-.58l.57-1a2.73,2.73,0,0,0,.9.47,3.47,3.47,0,0,0,1.1.18A1.84,1.84,0,0,0,49,29.55a1.67,1.67,0,0,0,.41-1.23V28a2,2,0,0,1-.79.54,2.8,2.8,0,0,1-1,.18,3,3,0,0,1-1.4-.33,2.48,2.48,0,0,1-1-.92,2.62,2.62,0,0,1-.36-1.37,2.56,2.56,0,0,1,.36-1.36,2.41,2.41,0,0,1,1-.92,3,3,0,0,1,1.4-.33,2.83,2.83,0,0,1,1.07.2,1.86,1.86,0,0,1,.8.58v-.72ZM49,27.25A1.58,1.58,0,0,0,49,25a1.88,1.88,0,0,0-2.37,0,1.58,1.58,0,0,0,0,2.23,1.85,1.85,0,0,0,2.37,0Z"/><path class="cls-2" d="M52.35,21.48h1.27V29H52.35Z"/><path class="cls-2" d="M60.35,26.7H56.1a1.51,1.51,0,0,0,.58.94,1.89,1.89,0,0,0,1.17.35,2,2,0,0,0,1.47-.58l.68.78a2.18,2.18,0,0,1-.92.65,3.59,3.59,0,0,1-2.83-.13,2.51,2.51,0,0,1-1-1,2.85,2.85,0,0,1-.37-1.43,2.8,2.8,0,0,1,.36-1.42,2.57,2.57,0,0,1,1-1,3.06,3.06,0,0,1,2.86,0,2.5,2.5,0,0,1,1,1,3,3,0,0,1,.35,1.46C60.37,26.41,60.36,26.53,60.35,26.7ZM56.6,24.9a1.51,1.51,0,0,0-.51,1h3.07a1.51,1.51,0,0,0-.49-1,1.67,1.67,0,0,0-2.07,0Z"/><path class="cls-2" d="M69,22.21a2.32,2.32,0,0,1,1,.87,2.69,2.69,0,0,1,0,2.69,2.41,2.41,0,0,1-1,.88,4,4,0,0,1-1.61.3h-1.6V29H64.5V21.9h2.92A3.82,3.82,0,0,1,69,22.21Zm-.36,3.26a1.26,1.26,0,0,0,.45-1,1.28,1.28,0,0,0-.45-1.05A2,2,0,0,0,67.36,23H65.82v2.81h1.54A2,2,0,0,0,68.67,25.47Z"/><path class="cls-2" d="M71.74,21.48H73V29H71.74Z"/><path class="cls-2" d="M78.57,24.1a2.2,2.2,0,0,1,.63,1.72V29H78v-.66a1.43,1.43,0,0,1-.66.54,2.86,2.86,0,0,1-2.1,0,1.64,1.64,0,0,1-.71-.58,1.48,1.48,0,0,1-.25-.83,1.41,1.41,0,0,1,.55-1.17,2.64,2.64,0,0,1,1.7-.45h1.4v-.08a1.1,1.1,0,0,0-.34-.87,1.46,1.46,0,0,0-1-.3,3,3,0,0,0-.9.14,2.15,2.15,0,0,0-.75.4l-.49-.93a3,3,0,0,1,1-.49,4.38,4.38,0,0,1,1.27-.18A2.63,2.63,0,0,1,78.57,24.1Zm-1.16,3.83a1.19,1.19,0,0,0,.52-.63v-.62h-1.3c-.73,0-1.1.24-1.1.72a.63.63,0,0,0,.27.54,1.25,1.25,0,0,0,.76.21A1.71,1.71,0,0,0,77.41,27.93Z"/><path class="cls-2" d="M85.79,23.58l-2.54,5.85a2.64,2.64,0,0,1-.86,1.24,2,2,0,0,1-1.22.36,2.44,2.44,0,0,1-.8-.13,1.84,1.84,0,0,1-.65-.36l.5-.93a1.73,1.73,0,0,0,.43.27,1.32,1.32,0,0,0,.51.1.9.9,0,0,0,.55-.17,1.62,1.62,0,0,0,.4-.58L82.2,29l-2.36-5.44h1.32l1.7,4,1.71-4Z"/><path class="cls-3" d="M21.6,22.19l-3.41-2-2.8,2.7L18,25.41,21.6,23.3a.62.62,0,0,0,.32-.55A.65.65,0,0,0,21.6,22.19Z"/><polygon class="cls-4" points="17.61 19.89 13.87 17.73 5.65 13.52 14.93 22.49 17.61 19.89"/><polygon class="cls-5" points="5.79 32.22 13.88 27.76 17.37 25.74 14.93 23.38 5.79 32.22"/><polygon class="cls-6" points="5.1 13.88 5.09 32 14.47 22.93 5.1 13.88"/><path class="cls-2" d="M26.3,18a1.8,1.8,0,0,1-.8-.18,2.29,2.29,0,0,1-.65-.51,2.54,2.54,0,0,1-.43-.71,2.25,2.25,0,0,1-.15-.82,2.31,2.31,0,0,1,.15-.83,2.54,2.54,0,0,1,.43-.71,2.15,2.15,0,0,1,.64-.48,2,2,0,0,1,.81-.17,1.93,1.93,0,0,1,1,.26,1.71,1.71,0,0,1,.62.69l-.42.29a1.29,1.29,0,0,0-.52-.56,1.52,1.52,0,0,0-.73-.18,1.21,1.21,0,0,0-.6.14,1.43,1.43,0,0,0-.47.38,1.92,1.92,0,0,0-.29.55,2,2,0,0,0-.1.64,2.08,2.08,0,0,0,.11.66,1.84,1.84,0,0,0,.32.54,1.48,1.48,0,0,0,.49.37,1.31,1.31,0,0,0,.59.14,1.48,1.48,0,0,0,.71-.19,2.06,2.06,0,0,0,.64-.59v.57A1.75,1.75,0,0,1,26.3,18Zm1.32-1.78h-.93v-.42h1.4v2.17h-.47Z"/><path class="cls-2" d="M31.89,17.44v.49h-3V13.58h2.9v.49H29.48v1.41h2v.46h-2v1.5Z"/><path class="cls-2" d="M35.78,14.07h-1.5v3.86h-.56V14.07h-1.5v-.49h3.56Z"/><path class="cls-2" d="M37.77,17.93V13.58h.55v4.35Z"/><path class="cls-2" d="M39.92,14.6v3.33h-.55V13.58h.46L42.49,17V13.59H43v4.34h-.5Z"/><path class="cls-2" d="M47.4,18a1.9,1.9,0,0,1-.83-.18,2,2,0,0,1-.65-.5,2.42,2.42,0,0,1-.42-.71,2.39,2.39,0,0,1,0-1.64,2.35,2.35,0,0,1,.44-.71,2,2,0,0,1,.65-.49,1.86,1.86,0,0,1,.82-.18,1.78,1.78,0,0,1,.83.19,2.12,2.12,0,0,1,.64.51,2.42,2.42,0,0,1,.42.71,2.22,2.22,0,0,1,.15.8,2.12,2.12,0,0,1-.16.83,2.15,2.15,0,0,1-.43.71,2.1,2.1,0,0,1-.65.49A2,2,0,0,1,47.4,18Zm-1.49-2.2a2,2,0,0,0,.11.64,1.83,1.83,0,0,0,.3.55,1.79,1.79,0,0,0,.48.38,1.34,1.34,0,0,0,.61.14,1.26,1.26,0,0,0,.62-.15,1.38,1.38,0,0,0,.47-.39,1.91,1.91,0,0,0,.29-1.81,1.72,1.72,0,0,0-.3-.55,1.47,1.47,0,0,0-.48-.38,1.38,1.38,0,0,0-1.23,0,1.3,1.3,0,0,0-.46.38,2,2,0,0,0-.3.55A1.94,1.94,0,0,0,45.91,15.76Z"/><path class="cls-2" d="M50.78,14.6v3.33h-.56V13.58h.47L53.35,17V13.59h.55v4.34h-.5Z"/></svg>