<?xml version="1.0" encoding="utf-8"?>
<!-- Generator: Adobe Illustrator 25.3.1, SVG Export Plug-In . SVG Version: 6.00 Build 0)  -->
<svg version="1.1" id="Layer_1" xmlns="http://www.w3.org/2000/svg" xmlns:xlink="http://www.w3.org/1999/xlink" x="0px" y="0px"
	 width="75px" height="50px" viewBox="0 0 75 50" style="enable-background:new 0 0 75 50;" xml:space="preserve">
<style type="text/css">
	.st0{fill:#ED1C24;}
	.st1{fill:#FFFFFF;}
	.st2{fill:#F7941D;}
	.st3{fill:#FBD6BD;}
	.st4{fill:#FCDABE;}
	.st5{fill:#FCDDB9;}
	.st6{fill:#EE2523;}
</style>
<path id="Rectangle_2" class="st0" d="M2.5,0h70C73.88,0,75,1.12,75,2.5v45c0,1.38-1.12,2.5-2.5,2.5h-70C1.12,50,0,48.88,0,47.5v-45
	C0,1.12,1.12,0,2.5,0z"/>
<g>
	<path class="st1" d="M47.18,26.91c0.13,0.18,0.23,0.33,0.32,0.48c0.23,0.39,0.57,0.54,1.01,0.55c0.4,0,0.78-0.07,1.14-0.26
		c0.17-0.09,0.32-0.2,0.43-0.36c0.16-0.24,0.13-0.48,0-0.72c-0.12-0.23-0.33-0.33-0.59-0.33c-0.1,0-0.19,0.05-0.28,0.09
		c-0.88,0.36-1.72,0.27-2.5-0.26c-0.43-0.29-0.62-0.75-0.68-1.26c-0.08-0.69,0.13-1.28,0.6-1.78c0.59-0.63,1.32-0.96,2.17-1.08
		c0.94-0.13,1.76,0.12,2.53,0.65c0.43,0.3,0.81,0.63,1.18,1c0.06,0.06,0.11,0.14,0.2,0.17c0.06-0.06,0.03-0.13,0.03-0.19
		c0-0.32,0-0.64,0-0.96c0-0.4,0.07-0.46,0.45-0.46c0.77,0,1.54,0,2.31,0c3.24,0,6.48,0,9.72,0c0.07,0,0.15,0,0.22,0
		c0.4,0,0.46,0.06,0.45,0.45c0,0.21,0,0.43,0,0.64c-0.01,0.23-0.1,0.33-0.33,0.33c-0.07,0-0.15,0-0.22,0c-2.11,0-4.23,0-6.35,0
		c-0.31,0-0.27-0.03-0.27,0.28c0,0.71,0,1.43,0,2.14c0,0.07,0,0.14,0,0.22c0.1,0.02,0.13-0.05,0.17-0.09
		c0.77-0.68,1.55-1.34,2.46-1.83c0.32-0.17,0.65-0.31,1-0.39c0.11-0.03,0.21-0.04,0.32-0.01c0.66,0.17,1.27,0.44,1.74,0.96
		c0.14,0.16,0.27,0.33,0.33,0.54c0.06,0.18,0,0.33-0.18,0.4c-0.26,0.1-0.41,0.29-0.54,0.51c-0.22,0.36-0.34,0.76-0.43,1.17
		c-0.2,0.92-0.27,1.85-0.24,2.78c0.01,0.38,0.06,0.75,0.18,1.11c0.05,0.14,0.1,0.28,0.18,0.4c0.17,0.25,0.39,0.33,0.68,0.27
		c0.05-0.01,0.09-0.03,0.14-0.04c0.35-0.08,0.33-0.12,0.5,0.24c0.13,0.26,0.16,0.55,0.11,0.84c-0.05,0.35-0.26,0.58-0.59,0.69
		c-0.58,0.19-1.1,0.06-1.55-0.35c-0.36-0.33-0.58-0.75-0.75-1.2c-0.22-0.57-0.32-1.17-0.39-1.77c-0.06-0.47-0.06-0.95-0.1-1.42
		c-0.07-0.78-0.1-1.57-0.09-2.35c0-0.01-0.01-0.03-0.02-0.05c-0.1,0.01-0.17,0.08-0.25,0.13c-1.03,0.67-1.7,1.61-2.08,2.77
		c-0.14,0.43-0.24,0.87-0.3,1.32c-0.03,0.25-0.2,0.37-0.43,0.28c-0.55-0.22-1.09-0.45-1.63-0.67c-0.07-0.03-0.11-0.07-0.1-0.15
		c0.01-0.07,0-0.13,0-0.2c0-2.08,0-4.16,0-6.25c0-0.32,0.03-0.27-0.27-0.27c-0.6,0-1.2,0-1.8,0c-0.18,0-0.19,0-0.19,0.19
		c0,0.89,0,1.77,0,2.66c0,2.49,0,4.98,0,7.47c0,0.09,0,0.18-0.01,0.27c-0.03,0.22-0.23,0.33-0.42,0.21
		c-0.47-0.27-0.93-0.55-1.39-0.83c-0.06-0.04-0.1-0.08-0.09-0.16c0-0.07,0-0.13,0-0.2c0-2.42,0-4.84,0-7.25
		c0-0.18-0.05-0.33-0.15-0.48c-0.3-0.44-0.63-0.86-1.02-1.22c-0.39-0.37-0.84-0.66-1.39-0.74c-0.41-0.06-0.8-0.01-1.16,0.21
		c-0.34,0.21-0.53,0.51-0.51,0.92c0.01,0.24,0.14,0.41,0.32,0.55c0.09,0.07,0.21,0.09,0.33,0.05c0.15-0.05,0.29-0.1,0.44-0.15
		c0.48-0.15,0.94-0.1,1.33,0.21c0.59,0.46,0.99,1.06,1.05,1.82c0.11,1.36-0.8,2.64-1.96,2.93c-0.75,0.19-1.48,0.18-2.15-0.25
		c-0.48-0.31-0.84-0.73-0.99-1.3c-0.06-0.24-0.06-0.47,0.02-0.7C46.95,27.54,47.06,27.25,47.18,26.91z"/>
	<path class="st2" d="M14.62,17.03c-0.41,0.76-0.68,1.58-0.88,2.42c-0.27,1.1-0.38,2.21-0.34,3.34c0.07,1.8,0.44,3.52,1.26,5.13
		c0.53,1.04,1.21,1.96,2.12,2.71c0.82,0.68,1.74,1.13,2.8,1.29c0.58,0.09,1.16,0.08,1.74,0.02c0.76-0.08,1.5-0.24,2.18-0.61
		c1.83-0.99,2.95-2.49,3.26-4.55c0.27-1.78-0.18-3.38-1.33-4.77c-0.13-0.16-0.27-0.3-0.43-0.47c0.3-0.04,0.56,0,0.82,0.04
		c1.23,0.17,2.42,0.49,3.53,1.07c0.49,0.25,0.96,0.54,1.39,0.87c0.12,0.09,0.3,0.1,0.37,0.25c0.14,0.24,0.11,0.51,0.12,0.76
		c0.03,1.56-0.26,3.06-0.95,4.45c-1,2.04-2.5,3.63-4.52,4.71c-1.35,0.72-2.77,1.1-4.3,1.18c-1.75,0.09-3.4-0.28-4.98-1.01
		c-0.33-0.15-0.64-0.34-0.94-0.53c-0.07-0.04-0.14-0.09-0.16-0.17c0.04-0.11,0.1-0.05,0.16-0.02c0-0.01-0.01-0.01-0.01-0.01
		c-0.43-0.2-0.77-0.53-1.11-0.84c-1.63-1.46-2.74-3.24-3.24-5.37c-0.12-0.52-0.18-1.06-0.23-1.59c-0.05-0.55,0-1.09-0.01-1.64
		c0,0.4-0.04,0.79-0.03,1.19c0.05,1.26,0.28,2.47,0.77,3.64c0.37,0.89,0.86,1.71,1.46,2.46c0.42,0.52,0.89,1,1.41,1.43
		c0.07,0.06,0.17,0.11,0.15,0.23c-0.13,0.07-0.2-0.04-0.27-0.1c-0.83-0.68-1.53-1.47-2.11-2.38c-0.86-1.36-1.38-2.84-1.55-4.44
		c-0.18-1.71,0.08-3.36,0.73-4.95c0.5-1.23,1.24-2.3,2.15-3.26c0.19-0.2,0.41-0.37,0.62-0.56c0.07-0.06,0.17-0.19,0.28-0.04
		c0,0.01,0,0.03-0.01,0.04c-0.35,0.36-0.76,0.66-1.09,1.04c-0.07,0.08-0.16,0.14-0.21,0.23c-0.05,0.1-0.15,0.16-0.2,0.26
		c-0.05,0.07-0.11,0.14-0.16,0.21c-0.35,0.49-0.68,1-0.93,1.55c0.25-0.55,0.58-1.05,0.92-1.54c0.05-0.08,0.11-0.14,0.16-0.21
		c0.06-0.1,0.15-0.16,0.21-0.26c0.37-0.42,0.77-0.8,1.2-1.15c0.05-0.04,0.09-0.1,0.17-0.06c0,0,0.01,0.01,0.01,0.02
		C14.63,17.01,14.62,17.02,14.62,17.03z"/>
	<path class="st1" d="M14.57,16.89c-0.05-0.06-0.1-0.03-0.15,0.01c-0.26,0.2-0.5,0.42-0.73,0.66c-0.44,0.47-0.85,0.95-1.2,1.49
		c-0.73,1.1-1.23,2.31-1.49,3.6c-0.09,0.45-0.15,0.9-0.17,1.36c-0.01,0.29-0.04,0.59-0.03,0.88c0.06,1.29,0.3,2.54,0.81,3.73
		c0.4,0.93,0.92,1.79,1.57,2.56c0.44,0.52,0.93,0.99,1.46,1.41c0.02,0.02,0.06,0.02,0.09,0.03c0.01,0,0.02,0,0.03,0.01
		c0.06,0.03,0.1,0.07,0.15,0.1c0.02,0.01,0.03,0.02,0.05,0.03c0.04,0.04,0.09,0.08,0.14,0.11c0.02,0.01,0.03,0.02,0.05,0.03
		c0.03,0.02,0.07,0.05,0.1,0.07c0.02,0.01,0.03,0.02,0.05,0.03c0.03,0.02,0.07,0.05,0.09,0.08c0,0.01,0.01,0.02,0.01,0.03
		c0.12,0.16,0.3,0.22,0.46,0.32c0.98,0.58,2.04,0.97,3.15,1.19c0.49,0.1,0.98,0.14,1.48,0.18c0.47,0.04,0.93,0.01,1.39-0.03
		c1.11-0.09,2.19-0.36,3.21-0.82c1.35-0.62,2.53-1.46,3.52-2.57c0.53-0.59,0.97-1.25,1.36-1.94c0.53-0.93,0.85-1.92,1.05-2.97
		c0.07-0.36,0.11-0.72,0.12-1.09c0-0.24,0.04-0.47,0.03-0.71c-0.01-0.3-0.04-0.6-0.06-0.9c0-0.04,0-0.08,0.01-0.15
		c0.17,0.14,0.31,0.26,0.47,0.39c0.14-0.21,0.28-0.42,0.42-0.63c1.12,5.06-1.32,11.21-7.59,13.37c-6.06,2.09-12.68-1.1-14.73-7.3
		c-1.98-5.97,1.24-11.74,5.73-13.88c0.03,0.05-0.01,0.07-0.03,0.1c-0.25,0.34-0.5,0.69-0.71,1.06
		C14.68,16.79,14.64,16.85,14.57,16.89z"/>
	<path class="st1" d="M40.84,28.44c0.25,0.12,0.45,0.22,0.64,0.35c0.96,0.68,0.99,1.98,0.06,2.71c-0.39,0.31-0.83,0.45-1.32,0.47
		c-0.42,0.01-0.83-0.05-1.23-0.19c-0.45-0.16-0.85-0.41-1.12-0.8c-0.75-1.06-0.96-2.22-0.57-3.47c0.17-0.55,0.51-1.01,0.93-1.39
		c0.64-0.58,1.39-0.73,2.22-0.54c0.89,0.2,1.6,0.7,2.2,1.36c0.17,0.19,0.32,0.4,0.47,0.6c0.03,0.04,0.05,0.08,0.1,0.1
		c0.03-0.08,0.02-0.15,0.02-0.22c0-1.19,0-2.38,0-3.57c0-0.05,0-0.1,0-0.15c0-0.08-0.03-0.12-0.11-0.12c-0.07,0-0.13,0-0.2,0
		c-2.3,0-4.61,0-6.91,0c-0.43,0-0.49-0.06-0.49-0.5c0-0.18,0-0.36,0-0.54c0.01-0.23,0.11-0.33,0.33-0.34c0.06,0,0.11,0,0.17,0
		c3.16,0,6.33,0,9.49,0c0.45,0,0.59,0.13,0.56,0.55c-0.01,0.18,0,0.36,0,0.54c-0.01,0.23-0.11,0.33-0.33,0.33c-0.14,0-0.28,0-0.42,0
		c-0.09,0-0.14,0.02-0.13,0.12c0,0.07,0,0.13,0,0.2c0,3.37,0,6.74,0,10.1c0,0.08,0.01,0.16,0,0.25c-0.03,0.23-0.23,0.35-0.43,0.23
		c-0.47-0.27-0.93-0.56-1.39-0.83c-0.1-0.06-0.09-0.14-0.09-0.23c0-0.61,0-1.21,0-1.82c-0.01-1.25-0.5-2.29-1.35-3.17
		c-0.52-0.54-1.18-0.79-1.94-0.83c-0.71-0.03-1.18,0.64-1.23,1.11c-0.05,0.52,0.12,0.82,0.6,1.03c0.47,0.2,0.93,0.14,1.26-0.17
		c0.13-0.12,0.21-0.26,0.2-0.45C40.83,28.93,40.84,28.7,40.84,28.44z"/>
	<path class="st2" d="M31.52,23.3c-2.03-1.86-4.41-2.64-7.1-2.38c-2.7,0.26-4.83,1.57-6.49,3.69c0.84-2.24,2.26-3.96,4.42-5.03
		c2.14-1.05,4.36-1.27,6.65-0.6c0.07-0.07,0.04-0.14,0.04-0.21c-0.02-0.67-0.04-1.34-0.07-2.01c0-0.04,0-0.08,0-0.12
		c-0.01-0.11,0.04-0.15,0.15-0.14c0.25,0.02,0.51,0.02,0.76,0.05c1.7,0.19,3.23,0.82,4.58,1.86c0.06,0.05,0.14,0.09,0.18,0.17
		C33.62,20.16,32.59,21.73,31.52,23.3z"/>
	<path class="st2" d="M15.58,27.57c-0.16-0.17-0.26-0.37-0.37-0.56c-0.66-1.18-1.08-2.43-1.25-3.78c-0.55-4.35,1.71-8.56,5.62-10.5
		c0.34-0.17,0.34-0.17,0.52,0.16c0.61,1.12,1.21,2.23,1.82,3.35c0.17,0.3,0.16,0.3-0.14,0.44c-2.96,1.35-4.97,3.55-5.89,6.69
		C15.48,24.74,15.43,26.14,15.58,27.57z"/>
	<path class="st1" d="M16.91,23.82c0.26-1.63,0.96-3.06,2.01-4.33c1.05-1.27,2.37-2.17,3.95-2.74c-0.39-0.72-0.78-1.43-1.17-2.15
		c0.38-0.28,0.78-0.51,1.2-0.72c1.49-0.73,3.06-1.05,4.71-0.93c0.16,0.01,0.31,0.04,0.46,0.05c0.12,0.01,0.16,0.06,0.15,0.17
		c0,0.05,0,0.1,0,0.15c0.04,1.59,0.08,3.18,0.12,4.77c0,0.02,0,0.05,0,0.07c0,0.16-0.01,0.16-0.17,0.14
		c-0.61-0.1-1.22-0.14-1.84-0.12c-3.92,0.15-6.96,1.86-9.09,5.15c-0.11,0.17-0.2,0.35-0.31,0.52
		C16.94,23.84,16.93,23.83,16.91,23.82z"/>
	<path class="st3" d="M13.23,18.2c0.04-0.12,0.15-0.19,0.23-0.28c0.35-0.35,0.69-0.71,1.1-0.99c0.06,0.01,0.14,0.01,0.06,0.1
		c-0.05-0.05-0.07,0-0.1,0.03c-0.43,0.34-0.83,0.7-1.19,1.1c-0.02,0.02-0.05,0.04-0.07,0.07C13.25,18.21,13.24,18.2,13.23,18.2z"/>
	<path class="st2" d="M14.72,32.62c-0.08-0.14-0.22-0.21-0.34-0.32c-1.28-1.16-2.28-2.52-2.87-4.16c-0.24-0.67-0.42-1.36-0.52-2.06
		c-0.08-0.58-0.13-1.17-0.1-1.76c0.01-0.25,0.06-0.5,0.06-0.75c0.05,0.1,0.03,0.21,0.04,0.31c0,0.27,0,0.54,0,0.81
		c0.03,1.91,0.54,3.67,1.56,5.29c0.53,0.85,1.19,1.58,1.92,2.25c0.31,0.28,0.63,0.54,0.98,0.77c0.06,0.04,0.12,0.08,0.16,0.15
		l-0.01,0.01c-0.06-0.02-0.13-0.04-0.19-0.05l0,0c-0.05-0.04-0.1-0.06-0.15-0.1l0,0c-0.05-0.04-0.1-0.06-0.15-0.1l0,0
		c-0.07-0.05-0.13-0.11-0.2-0.15l0,0C14.85,32.72,14.79,32.66,14.72,32.62L14.72,32.62z"/>
	<path class="st4" d="M12.92,18.66c-0.21,0.34-0.43,0.68-0.63,1.02c-0.12,0.2-0.23,0.41-0.36,0.6c0.23-0.6,0.55-1.15,0.96-1.65
		C12.91,18.63,12.92,18.64,12.92,18.66z"/>
	<path class="st5" d="M13.26,18.22c-0.04,0.1-0.11,0.18-0.19,0.25c-0.02,0.01-0.03,0-0.03-0.03c0.04-0.1,0.11-0.18,0.2-0.24
		C13.24,18.2,13.25,18.21,13.26,18.22z"/>
	<path class="st4" d="M13.06,18.46c-0.03,0.08-0.08,0.14-0.15,0.2c-0.01-0.01-0.02-0.02-0.03-0.03c0.03-0.08,0.09-0.14,0.15-0.2
		C13.04,18.45,13.05,18.46,13.06,18.46z"/>
	<path class="st6" d="M15.61,33.15c0.02,0,0.05,0.01,0.07,0.02c0.02,0.01,0.06,0.03,0.04,0.06c-0.02,0.03-0.05,0-0.07-0.02
		C15.63,33.2,15.62,33.18,15.61,33.15C15.6,33.16,15.61,33.15,15.61,33.15z"/>
	<path class="st2" d="M14.72,32.61c0.1,0,0.16,0.07,0.2,0.15C14.82,32.76,14.76,32.7,14.72,32.61z"/>
	<path class="st2" d="M14.91,32.76c0.1,0.01,0.16,0.07,0.2,0.15C15.02,32.9,14.96,32.84,14.91,32.76z"/>
	<path class="st2" d="M15.11,32.91c0.07,0,0.12,0.03,0.15,0.1C15.19,33.01,15.14,32.97,15.11,32.91z"/>
	<path class="st2" d="M15.26,33.01c0.07,0,0.12,0.03,0.15,0.1C15.34,33.11,15.29,33.07,15.26,33.01z"/>
</g>
</svg>
