<?xml version="1.0" encoding="utf-8"?>
<!-- Generator: Adobe Illustrator 25.3.1, SVG Export Plug-In . SVG Version: 6.00 Build 0)  -->
<svg version="1.1" id="Layer_1" xmlns="http://www.w3.org/2000/svg" xmlns:xlink="http://www.w3.org/1999/xlink" x="0px" y="0px"
	 width="75px" height="50px" viewBox="0 0 75 50" style="enable-background:new 0 0 75 50;" xml:space="preserve">
<style type="text/css">
	.st0{fill:#8A298F;}
	.st1{fill:#FFFFFF;}
</style>
<path id="Rectangle_2" class="st0" d="M2.5,0h70C73.88,0,75,1.12,75,2.5v45c0,1.38-1.12,2.5-2.5,2.5h-70C1.12,50,0,48.88,0,47.5v-45
	C0,1.12,1.12,0,2.5,0z"/>
<g>
	<path class="st1" d="M50.27,12.71c-1.87,1.31-3.74,2.62-5.6,3.93c-1.41,0.99-2.81,1.98-4.21,2.98c-0.18,0.13-0.32,0.2-0.56,0.07
		c-1.73-0.95-3.48-1.88-5.21-2.82c-0.06-0.03-0.11-0.08-0.23-0.17c7.15-2.96,14.25-5.9,21.43-8.88c-2.15,6.64-4.28,13.2-6.43,19.85
		c-1.57-1.98-3.09-3.91-4.65-5.88c-0.5,1.05-0.98,2.04-1.51,3.16c-0.11-0.83-0.2-1.55-0.29-2.27c-0.08-0.62-0.12-1.24-0.23-1.86
		c-0.05-0.3,0.04-0.48,0.24-0.67c2.35-2.34,4.7-4.69,7.05-7.04c0.1-0.1,0.18-0.2,0.27-0.3c0.03-0.03,0.06-0.06,0.09-0.09
		c0.02-0.03,0.07-0.08,0.06-0.09c-0.05-0.07-0.09-0.01-0.13,0.02C50.33,12.67,50.3,12.69,50.27,12.71z"/>
	<path class="st1" d="M57.16,33.9c0.44-1.02,0.84-1.97,1.24-2.92c0.05-0.12,0.11-0.21,0.26-0.2c1.14,0.05,2.29-0.14,3.42,0.11
		c1.72,0.37,2.99,2.12,2.83,3.86c-0.18,1.92-1.67,3.43-3.5,3.45c-3.3,0.03-6.61,0.01-9.92,0.02c-0.26,0-0.34-0.08-0.33-0.34
		c0.01-3.67,0.01-7.34,0-11.01c0-0.34,0.15-0.36,0.41-0.36c2.71,0.01,5.42,0,8.13,0c0.56,0,0.56-0.01,0.38-0.56
		c-0.67-2.01-3.23-2.52-4.64-0.91c-0.25,0.28-0.35,0.24-0.58,0.02c-0.58-0.56-1.19-1.09-1.79-1.63c-0.18-0.16-0.18-0.26-0.03-0.44
		c1.61-1.76,3.6-2.44,5.9-1.85c2.32,0.6,3.76,2.15,4.27,4.51c0.18,0.85,0.16,0.85,1.04,0.85c0.72,0,0.63-0.08,0.64,0.63
		c0.01,0.69-0.02,1.37,0.01,2.06c0.01,0.37-0.1,0.46-0.46,0.45c-3.2-0.01-6.4,0-9.6-0.02c-0.43,0-0.57,0.1-0.56,0.55
		c0.03,1.49,0.02,2.98,0,4.48c0,0.32,0.06,0.45,0.42,0.44c2.1-0.02,4.2-0.01,6.31-0.01c0.5,0,0.75-0.21,0.76-0.59
		c0-0.39-0.25-0.6-0.74-0.6C59.76,33.9,58.49,33.9,57.16,33.9z"/>
	<path class="st1" d="M49.28,30.61c-0.73-2.32-2.4-3.69-4.83-4.03c-1.51-0.21-3.04-0.03-4.28-0.08c-0.98,0-1.68-0.01-2.38,0
		c-1.03,0.02-2.07-0.07-3.09,0.16c-2.9,0.63-4.89,3.39-4.56,6.37c0.33,2.91,2.82,5.17,5.73,5.17c2.51,0.01,5.03,0,7.54,0.01
		c0.34,0,0.43-0.08,0.43-0.43c-0.02-2.54-0.01-5.08-0.01-7.63c0-0.55,0.02-0.56,0.57-0.41c1.05,0.29,1.73,0.97,1.97,2.01
		c0.24,1.06-0.06,2-0.92,2.7c-0.23,0.19-0.22,0.29-0.04,0.48c0.57,0.6,1.13,1.2,1.66,1.82c0.2,0.23,0.31,0.2,0.5,0.02
		C49.39,35.07,50.03,32.99,49.28,30.61z M40.35,35.09c-1.51-0.01-3.01,0.01-4.52-0.01c-1.36-0.02-2.53-1.2-2.6-2.57
		c-0.07-1.39,0.96-2.68,2.32-2.81c1.62-0.15,3.25-0.03,4.88-0.06c0.27-0.01,0.27,0.16,0.27,0.36c0,0.79,0,1.58,0,2.37
		c0,0.79-0.01,1.58,0.01,2.37C40.72,35.03,40.62,35.1,40.35,35.09z"/>
	<path class="st1" d="M23.79,32.39c0-1.83-0.01-3.65,0.01-5.48c0-0.32-0.09-0.41-0.41-0.41c-2.47,0.01-4.93-0.01-7.4,0.01
		c-3.1,0.03-5.64,2.32-5.89,5.27c-0.26,3.1,1.78,5.8,4.81,6.35c0.24,0.04,0.34,0,0.47-0.2c1.37-2.07,4.12-2.07,5.47,0
		c0.14,0.21,0.27,0.28,0.51,0.27c0.67-0.01,1.34-0.02,2.01,0c0.35,0.01,0.43-0.09,0.43-0.43C23.79,35.98,23.79,34.19,23.79,32.39z
		 M20.28,35.1c-1.49-0.02-2.98,0.01-4.47-0.01c-1.36-0.02-2.52-1.19-2.6-2.58c-0.08-1.37,0.98-2.68,2.33-2.81
		c1.61-0.15,3.22-0.03,4.84-0.06c0.28-0.01,0.27,0.17,0.27,0.36c0,0.79,0,1.58,0,2.37c0,0.78-0.01,1.55,0.01,2.33
		C20.66,34.98,20.6,35.1,20.28,35.1z"/>
	<path class="st1" d="M31.24,26.51c-1.29,1.15-2.12,2.44-2.49,4c-0.56,2.35-0.13,4.53,1.32,6.47c0.27,0.35,0.2,0.51-0.1,0.75
		c-0.59,0.47-1.17,0.97-1.74,1.48c-0.2,0.17-0.3,0.15-0.46-0.05c-2.81-3.37-3.18-8.64-0.84-12.35c0.09-0.15,0.16-0.31,0.4-0.3
		C28.59,26.51,29.85,26.51,31.24,26.51z"/>
	<path class="st1" d="M20.7,39.59c0.01,1.41-1.16,2.58-2.58,2.59c-1.4,0.01-2.55-1.13-2.55-2.54c-0.01-1.47,1.13-2.62,2.58-2.62
		C19.53,37.02,20.69,38.19,20.7,39.59z"/>
	<path class="st1" d="M18.18,23.73c0.88-0.46,1.2-1.03,1.04-1.71c-0.17-0.71-0.74-1.09-1.64-1.09c-0.59,0-1.19,0.01-1.78-0.01
		C15.5,20.91,15.4,21,15.4,21.3c0.02,1.1,0.01,2.19,0,3.29c0,0.27,0.07,0.4,0.36,0.37c0.14-0.02,0.28-0.02,0.41,0
		c0.27,0.03,0.33-0.09,0.33-0.34c0-0.29-0.06-0.59,0.11-1.04c0.43,0.47,0.74,0.96,1.18,1.26c0.45,0.3,1.03,0.08,1.56,0.12
		c0.01-0.04,0.03-0.08,0.04-0.11C19,24.48,18.61,24.12,18.18,23.73z M17.87,22.61c-0.41,0.02-0.81,0.03-1.22,0.02
		c-0.21,0-0.15-0.19-0.15-0.31c-0.01-0.13-0.03-0.29,0.18-0.29c0.2,0,0.39,0,0.59,0v0.01c0.2,0,0.39-0.02,0.59,0.01
		c0.16,0.02,0.29,0.11,0.28,0.3C18.13,22.51,18.01,22.61,17.87,22.61z"/>
	<path class="st1" d="M32.64,22.42c0.7,0,1.31,0.02,1.92-0.01c0.31-0.01,0.45,0.08,0.41,0.4c-0.02,0.1-0.01,0.21,0,0.32
		c0.04,0.27-0.06,0.37-0.35,0.36c-0.63-0.02-1.26-0.01-1.97-0.01c0.22,0.34,0.5,0.38,0.79,0.39c0.46,0.01,0.91,0.02,1.37,0
		c0.29-0.01,0.39,0.09,0.36,0.37c-0.01,0.12-0.01,0.25,0,0.37c0.04,0.29-0.1,0.36-0.37,0.35c-0.52-0.02-1.04,0-1.55-0.01
		c-0.99-0.02-1.81-0.81-1.9-1.81c-0.08-1.01,0.59-1.93,1.54-2.13c0.68-0.14,1.37-0.05,2.05-0.08c0.15-0.01,0.2,0.07,0.22,0.22
		c0.12,0.78,0.04,0.88-0.74,0.88c-0.34,0-0.67,0-1.01,0C33.14,22.04,32.88,22.1,32.64,22.42z"/>
	<path class="st1" d="M21.51,20.93c-1.13,0.01-2.04,0.89-2.06,2.01c-0.02,1.13,0.89,2.02,2.06,2.02c1.15,0,2.05-0.86,2.06-1.98
		C23.6,21.86,22.64,20.92,21.51,20.93z M21.57,23.88c-0.55,0.03-0.98-0.34-1.01-0.87c-0.03-0.5,0.36-0.93,0.88-0.97
		c0.53-0.04,0.99,0.34,1.03,0.86C22.51,23.41,22.12,23.84,21.57,23.88z"/>
	<path class="st1" d="M31.79,24.9c-1.08,0.34-1.89-0.14-2.49-1.06c-0.15,0.14-0.1,0.25-0.1,0.35c-0.01,0.81-0.01,0.8-0.81,0.77
		c-0.26-0.01-0.29-0.11-0.29-0.33c0.01-1.13,0.01-2.25,0-3.38c0-0.27,0.1-0.32,0.35-0.32c0.75,0,0.75-0.01,0.75,0.74
		c0,0.12,0,0.23,0,0.35c0.04,0.03,0.08,0.06,0.12,0.09c0.35-0.37,0.63-0.85,1.05-1.09c0.42-0.24,0.97-0.04,1.61-0.1
		c-0.61,0.62-1.11,1.17-1.66,1.65c-0.37,0.32-0.32,0.51,0.01,0.82C30.85,23.87,31.32,24.41,31.79,24.9z"/>
	<path class="st1" d="M26.46,24.96c-0.34-0.03-0.73,0.05-1.12-0.06c-0.99-0.3-1.56-1.19-1.43-2.25c0.11-0.93,0.97-1.67,2.01-1.71
		c0.49-0.02,0.97,0.01,1.46-0.01c0.29-0.01,0.35,0.1,0.35,0.37c0,0.74,0.01,0.74-0.71,0.74c-0.37,0-0.73-0.01-1.09,0
		c-0.56,0.02-0.94,0.39-0.94,0.91c-0.01,0.52,0.36,0.9,0.92,0.93c0.41,0.02,0.82,0,1.23,0.01c0.68,0.01,0.59-0.08,0.59,0.62
		c0,0.03,0,0.06,0,0.09c0.05,0.32-0.1,0.39-0.39,0.37C27.07,24.94,26.79,24.96,26.46,24.96z"/>
	<path class="st1" d="M37.46,20.93c0.52,0,1.04,0.01,1.55,0c0.25-0.01,0.38,0.06,0.34,0.33c0,0.03,0,0.06,0,0.09
		c0.01,0.69,0.01,0.69-0.66,0.69c-0.72,0-0.72,0-0.72,0.72c0,0.62-0.01,1.25,0,1.87c0.01,0.25-0.06,0.37-0.33,0.34
		c-0.14-0.02-0.27-0.02-0.41,0c-0.29,0.03-0.36-0.09-0.36-0.37c0.02-0.73-0.01-1.46,0.01-2.19c0.01-0.31-0.1-0.41-0.39-0.37
		c-0.15,0.02-0.31-0.02-0.46,0.01c-0.45,0.07-0.54-0.12-0.55-0.55c-0.01-0.48,0.13-0.61,0.59-0.56C36.54,20.96,37,20.93,37.46,20.93
		z"/>
	<path class="st1" d="M50.36,12.64c0.04-0.03,0.08-0.09,0.13-0.02c0.01,0.01-0.04,0.06-0.06,0.09
		C50.41,12.69,50.38,12.67,50.36,12.64z"/>
	<path class="st1" d="M50.43,12.71c-0.03,0.03-0.06,0.06-0.09,0.09c-0.02-0.03-0.05-0.06-0.07-0.09c0.03-0.02,0.06-0.05,0.09-0.07
		C50.38,12.67,50.41,12.69,50.43,12.71z"/>
</g>
</svg>
