<svg id="Layer_1" data-name="Layer 1" xmlns="http://www.w3.org/2000/svg" xmlns:xlink="http://www.w3.org/1999/xlink" width="75" height="50" viewBox="0 0 75 50"><defs><style>.cls-1{fill:url(#linear-gradient);}.cls-2{fill:#fff;}.cls-3{fill:#22d5b3;}</style><linearGradient id="linear-gradient" x1="57.653" y1="101.852" x2="31.44" y2="4.49" gradientTransform="matrix(1, 0, 0, -1, 0, 52)" gradientUnits="userSpaceOnUse"><stop offset="0" stop-color="#4f4f4f"/><stop offset="1" stop-color="#2b2b2b"/></linearGradient></defs><path id="Rectangle_2" data-name="Rectangle 2" class="cls-1" d="M2.5,0h70A2.5,2.5,0,0,1,75,2.5v45A2.5,2.5,0,0,1,72.5,50H2.5A2.5,2.5,0,0,1,0,47.5V2.5A2.5,2.5,0,0,1,2.5,0Z"/><path class="cls-2" d="M17.1,29.172c-.321,0-.642-.009-.962,0-.151.006-.21-.048-.255-.187-.325-.98-.662-1.956-.984-2.936a.269.269,0,0,0-.308-.226q-1.344.016-2.688,0a.267.267,0,0,0-.3.23c-.31.968-.634,1.932-.941,2.9a.266.266,0,0,1-.312.219c-.616-.011-1.233-.009-1.849,0-.168,0-.23-.008-.162-.208q1.89-5.526,3.761-11.056a.244.244,0,0,1,.279-.2q.912.016,1.825,0c.159,0,.22.051.27.2q1.221,3.609,2.454,7.214c.433,1.272.862,2.546,1.3,3.816.064.186.043.24-.165.229C17.743,29.159,17.421,29.172,17.1,29.172Zm-2.836-5.249-1.012-2.967c-.025.078-.039.125-.055.171q-.442,1.3-.886,2.6c-.035.1-.094.2.1.2C13.02,23.918,13.626,23.923,14.265,23.923Z"/><path class="cls-2" d="M44.21,23.529c0-1.768,0-3.536-.005-5.3,0-.235.042-.332.3-.369a15.286,15.286,0,0,1,3.484-.174,4.046,4.046,0,0,1,2.631,1.075,3.221,3.221,0,0,1,.934,2.14,4.116,4.116,0,0,1-.171,1.558,3.542,3.542,0,0,1-2.568,2.327A5.66,5.66,0,0,1,46.652,25c-.18-.016-.236.014-.235.21.01,1.234,0,2.468.01,3.7,0,.179-.035.24-.227.235-.583-.014-1.167-.017-1.75,0-.221.007-.245-.071-.244-.262C44.213,27.1,44.21,25.314,44.21,23.529Zm2.212-2.21q0,.765,0,1.53c0,.1-.026.2.131.208a4.07,4.07,0,0,0,1.678-.152,1.653,1.653,0,0,0,1.109-1.846,1.487,1.487,0,0,0-1.287-1.409,4.768,4.768,0,0,0-1.421-.06c-.167.012-.22.051-.215.225C46.431,20.316,46.422,20.818,46.422,21.319Z"/><path class="cls-2" d="M43.253,24.877a4.333,4.333,0,0,1-1.671,3.651,4.257,4.257,0,0,1-5.336-.258,4.075,4.075,0,0,1-1.187-2.328,5.028,5.028,0,0,1,.453-3.235,4.059,4.059,0,0,1,3.964-2.139,3.966,3.966,0,0,1,3.754,3.878C43.241,24.6,43.247,24.757,43.253,24.877Zm-6.008-.069a3.278,3.278,0,0,0,.338,1.646,1.684,1.684,0,0,0,1.5,1,1.614,1.614,0,0,0,1.528-.945,3.2,3.2,0,0,0-.053-3.246,1.642,1.642,0,0,0-2.827-.063A2.992,2.992,0,0,0,37.245,24.808Z"/><path class="cls-2" d="M56.281,28.673a3.68,3.68,0,0,1-1.535.633,2.652,2.652,0,0,1-3.209-2.051,2.792,2.792,0,0,1,1.7-3.192,6.35,6.35,0,0,1,2.58-.554c.2-.006.228-.063.19-.242a1.073,1.073,0,0,0-1.149-.84,3.15,3.15,0,0,0-2.092.658c-.162.129-.235.139-.3-.085-.139-.463-.3-.92-.461-1.376-.04-.112-.035-.171.073-.239a5.115,5.115,0,0,1,4.038-.677,2.761,2.761,0,0,1,2.109,2.481,5.455,5.455,0,0,1,.06.885c.007,1.356-.031,2.713.039,4.068a6.008,6.008,0,0,0,.095.857c.023.118.006.178-.143.176q-.888-.012-1.776,0c-.133,0-.173-.051-.181-.166C56.308,28.911,56.3,28.813,56.281,28.673Zm-.173-2.821c0-.123-.009-.247,0-.369.015-.156-.028-.215-.2-.2a6.721,6.721,0,0,0-1.068.154,1.846,1.846,0,0,0-.844.429,1.087,1.087,0,0,0-.186,1.168.828.828,0,0,0,.907.437A1.429,1.429,0,0,0,56.108,25.852Z"/><path class="cls-2" d="M62.65,25.767c.129-.38.245-.719.36-1.059.427-1.266.856-2.53,1.277-3.8a.239.239,0,0,1,.273-.2c.658.01,1.315.006,1.973,0,.129,0,.2,0,.133.168-1.013,2.6-1.932,5.244-3.02,7.817a8,8,0,0,1-1.767,2.788,4.255,4.255,0,0,1-2.167,1.141c-.178.034-.272.016-.325-.2-.128-.509-.287-1.009-.446-1.509-.043-.136-.02-.186.119-.223a3.591,3.591,0,0,0,2.34-2.061.356.356,0,0,0,.005-.321q-1.514-3.777-3.021-7.555a.321.321,0,0,1,0-.072c.767,0,1.535,0,2.3,0,.115,0,.125.077.153.154q.862,2.369,1.727,4.734C62.587,25.627,62.61,25.675,62.65,25.767Z"/><path class="cls-2" d="M19.115,26.7a4.452,4.452,0,0,0,1.489.679,2.242,2.242,0,0,0,1.049.018.661.661,0,0,0,.564-.513.687.687,0,0,0-.333-.758,3.614,3.614,0,0,0-.753-.359,5.534,5.534,0,0,1-1.244-.636,2.393,2.393,0,0,1,.263-4.147,3.859,3.859,0,0,1,3.915.195c.1.057.141.112.1.235-.173.5-.343,1.01-.5,1.52-.05.163-.108.142-.217.067a2.8,2.8,0,0,0-1.619-.573,1.36,1.36,0,0,0-.365.048.59.59,0,0,0-.469.483.547.547,0,0,0,.291.576,5.069,5.069,0,0,0,.978.459,4.228,4.228,0,0,1,1.336.767,2.542,2.542,0,0,1-.748,4.219,4.576,4.576,0,0,1-4.227-.345c-.07-.04-.108-.075-.077-.17C18.74,27.884,18.923,27.3,19.115,26.7Z"/><path class="cls-2" d="M29.648,27.11c.037.6.071,1.18.109,1.762.006.088,0,.149-.1.186a3.893,3.893,0,0,1-2.346.161,2.092,2.092,0,0,1-1.545-1.794,5.291,5.291,0,0,1-.1-1.029c0-1.192,0-2.385,0-3.577,0-.173-.039-.227-.215-.216-.262.016-.526,0-.788.006-.132,0-.191-.023-.188-.173.009-.518.007-1.036,0-1.554,0-.129.037-.174.167-.17.262.008.527-.013.788.007.206.016.245-.065.236-.248-.014-.3,0-.592-.006-.888a.189.189,0,0,1,.157-.227q.931-.273,1.857-.568c.153-.049.162.01.161.133,0,.534,0,1.069-.005,1.6,0,.155.045.2.2.193.534-.008,1.069,0,1.6-.006.145,0,.2.029.2.189-.01.51-.008,1.02,0,1.53,0,.139-.04.182-.181.18-.526-.008-1.053.008-1.578-.009-.2-.006-.239.063-.238.249.008,1.151,0,2.3,0,3.454,0,.016,0,.033,0,.049.056.994.252,1.073,1.208.92A5.623,5.623,0,0,0,29.648,27.11Z"/><path class="cls-2" d="M32.554,21.322a2.623,2.623,0,0,1,2.4-.71c.143.022.184.064.182.211-.01.608-.008,1.217,0,1.826,0,.142-.027.189-.177.146a2.047,2.047,0,0,0-1-.054,1.425,1.425,0,0,0-1.047.981,2.786,2.786,0,0,0-.158,1.016c0,1.4,0,2.8.006,4.194,0,.2-.048.249-.244.245q-.875-.021-1.75,0c-.19,0-.228-.051-.227-.232,0-2.039,0-4.078,0-6.118,0-.632-.023-1.264-.082-1.894-.014-.155.02-.21.189-.207.559.012,1.118.011,1.677,0,.16,0,.219.041.209.2A3.309,3.309,0,0,0,32.554,21.322Z"/><path class="cls-3" d="M27.5,18.46c-.566.171-1.1.37-1.646.479a2.28,2.28,0,0,1-.765-.146,10.814,10.814,0,0,0-6.96.822,6.322,6.322,0,0,0-1.91,1.415c-.049.053-.105.1-.169.16a2.773,2.773,0,0,1-.232-.6c-.147-.409-.274-.825-.428-1.232A.247.247,0,0,1,15.513,19a10.242,10.242,0,0,1,3.273-1.313,14.186,14.186,0,0,1,8.618.72C27.426,18.414,27.446,18.428,27.5,18.46Z"/></svg>