<svg xmlns="http://www.w3.org/2000/svg" viewBox="0 0 75 50"><defs><style>.cls-1{fill:#4fad93;}.cls-2{fill:#fff;}</style></defs><g id="usdt"><rect id="Rectangle_2" data-name="Rectangle 2" class="cls-1" width="75" height="50" rx="2.5"/><circle id="Ellipse_31" data-name="Ellipse 31" class="cls-2" cx="37.5" cy="25" r="17.5"/><path id="Path_152" data-name="Path 152" class="cls-1" d="M45.75,15.65c.11,0,.11,0,.11.11v3.93c0,.12,0,.12-.11.12H39.86c-.13,0-.13,0-.13.12v2.45c0,.08,0,.1.1.1,1.18.07,2.36.16,3.53.33a20.35,20.35,0,0,1,3.08.66,5.9,5.9,0,0,1,1.39.6,1.69,1.69,0,0,1,.43.37.64.64,0,0,1,0,.89,2.8,2.8,0,0,1-.57.46,8.51,8.51,0,0,1-1.68.63,21.83,21.83,0,0,1-2.53.52c-.7.1-1.41.17-2.11.24-.47,0-.95.07-1.43.09h-.16v8.47c0,.14,0,.13-.13.13H35.4c-.12,0-.12,0-.12-.12v-8.4c0-.12,0-.13-.11-.13a11.9,11.9,0,0,1-1.69-.12A10.17,10.17,0,0,1,32,26.94c-.7-.09-1.39-.21-2.07-.35A13,13,0,0,1,27.81,26a3.22,3.22,0,0,1-.91-.54.78.78,0,0,1-.23-.25.59.59,0,0,1,0-.69,1.3,1.3,0,0,1,.42-.42,5,5,0,0,1,1.31-.59A14.8,14.8,0,0,1,31,22.86c.57-.1,1.15-.17,1.73-.23s1.31-.13,2-.17h.62s.06,0,.06-.08h0V19.76c0-.08,0,0-.1,0H29.27c-.11,0-.11,0-.11-.12V15.82c0-.11,0-.11.12-.11ZM37.11,26.53h2.62c.71,0,1.41-.07,2.12-.14s1.56-.17,2.32-.32a11.64,11.64,0,0,0,2.11-.53,3.17,3.17,0,0,0,.85-.46.5.5,0,0,0,.16-.68.41.41,0,0,0-.16-.16,2.51,2.51,0,0,0-.55-.33,8.26,8.26,0,0,0-1.69-.52A21.38,21.38,0,0,0,42.13,23c-.78-.09-1.55-.15-2.34-.19-.1,0-.1,0-.1.11v2.79s0,.11-.09.11H35.36c-.09,0-.1,0-.1-.12V22.84c0-.09,0-.11-.12-.11a24.17,24.17,0,0,0-2.69.21,22,22,0,0,0-2.79.49,6.4,6.4,0,0,0-1.49.51,1.85,1.85,0,0,0-.48.35.43.43,0,0,0,0,.61h0a1.06,1.06,0,0,0,.23.19,2.63,2.63,0,0,0,.57.31A11.7,11.7,0,0,0,31,26c1,.17,2,.28,3.06.36S36,26.52,37.11,26.53Z"/></g></svg>