<?xml version="1.0" encoding="utf-8"?>
<!-- Generator: Adobe Illustrator 25.3.1, SVG Export Plug-In . SVG Version: 6.00 Build 0)  -->
<svg version="1.1" id="Layer_1" xmlns="http://www.w3.org/2000/svg" xmlns:xlink="http://www.w3.org/1999/xlink" x="0px" y="0px"
	 width="75px" height="50px" viewBox="0 0 75 50" style="enable-background:new 0 0 75 50;" xml:space="preserve">
<style type="text/css">
	.st0{fill:#231F20;}
	.st1{fill:#E1136E;}
	.st2{fill:#D02053;}
	.st3{fill:#9D1638;}
	.st4{fill:#FFFFFF;}
</style>
<path id="Rectangle_2" class="st0" d="M2.5,0h70C73.88,0,75,1.12,75,2.5v45c0,1.38-1.12,2.5-2.5,2.5h-70C1.12,50,0,48.88,0,47.5v-45
	C0,1.12,1.12,0,2.5,0z"/>
<g>
	<path class="st1" d="M64.47,22.78c-1.06-0.01-2.11,0.07-3.19,0.02c0.11-0.3,0.21-0.61,0.32-0.9c0.16-0.44,0.33-0.88,0.49-1.33
		c0.05-0.13,0.08-0.14,0.18-0.04c0.39,0.4,0.81,0.78,1.19,1.2c0.32,0.35,0.66,0.69,1.01,1.02C64.47,22.75,64.47,22.77,64.47,22.78z"
		/>
	<path class="st2" d="M38.35,12.63c0.34,0.04,0.62,0.07,0.9,0.1c0.35,0.04,0.71,0.09,1.06,0.13c0.46,0.06,0.92,0.11,1.38,0.17
		c0.34,0.04,0.68,0.08,1.02,0.12c0.46,0.06,0.93,0.12,1.39,0.17c0.33,0.04,0.66,0.08,0.99,0.12c0.48,0.06,0.95,0.12,1.43,0.17
		c0.45,0.05,0.9,0.1,1.34,0.15c0.45,0.05,0.89,0.11,1.34,0.17c0.33,0.04,0.66,0.09,0.99,0.11c0.13,0.01,0.14,0.04,0.11,0.16
		c-0.21,0.73-0.41,1.47-0.61,2.21c-0.28,1-0.55,2.01-0.83,3.01c-0.27,0.96-0.53,1.93-0.8,2.89c-0.17,0.6-0.33,1.21-0.5,1.81
		c-0.01,0.05-0.01,0.13-0.07,0.15c-0.06,0.01-0.07-0.07-0.1-0.11c-0.68-0.87-1.36-1.74-2.04-2.61c-0.76-0.97-1.53-1.94-2.29-2.91
		c-0.75-0.96-1.5-1.93-2.25-2.89c-0.64-0.82-1.28-1.64-1.93-2.46C38.72,13.09,38.55,12.88,38.35,12.63z"/>
	<path class="st1" d="M47.79,24.47c0.05-0.37,0.18-0.72,0.28-1.08c0.26-0.96,0.53-1.91,0.79-2.86c0.27-0.97,0.53-1.93,0.8-2.9
		c0.27-0.99,0.55-1.98,0.82-2.97c0.05-0.16,0.08-0.33,0.16-0.51c0.26,0.37,0.51,0.73,0.77,1.09c0.61,0.85,1.23,1.69,1.84,2.54
		c0.46,0.63,0.91,1.27,1.36,1.9c0.62,0.86,1.25,1.72,1.87,2.59c0.53,0.73,1.05,1.46,1.57,2.19c0.4,0.55,0.8,1.1,1.19,1.65
		c0.03,0.05,0.09,0.09,0.07,0.16c-0.08-0.01-0.15-0.03-0.23-0.04c-0.89-0.14-1.78-0.28-2.68-0.42c-1-0.16-2.01-0.32-3.01-0.48
		c-0.98-0.15-1.96-0.3-2.94-0.46C49.58,24.74,48.68,24.6,47.79,24.47z"/>
	<path class="st2" d="M47.79,24.47c0.89,0.14,1.79,0.27,2.68,0.41c0.98,0.15,1.96,0.3,2.94,0.46c1,0.16,2.01,0.32,3.01,0.48
		c0.89,0.14,1.78,0.28,2.68,0.42c0.08,0.01,0.15,0.03,0.23,0.04c-0.14,0.07-0.28,0.15-0.42,0.22c-1.23,0.62-2.46,1.23-3.68,1.86
		c-0.94,0.49-1.89,0.95-2.84,1.43c-0.99,0.51-1.98,1.01-2.97,1.51c-0.17,0.09-0.14-0.07-0.15-0.13c-0.09-0.38-0.17-0.77-0.26-1.16
		c-0.35-1.55-0.69-3.09-1.04-4.64C47.9,25.07,47.85,24.77,47.79,24.47z"/>
	<path class="st3" d="M47.55,24.78c0.15,0.66,0.3,1.32,0.45,1.97c0.16,0.73,0.32,1.46,0.48,2.19c0.29,1.3,0.58,2.61,0.88,3.91
		c0.01,0.06,0.01,0.11-0.04,0.16c-0.59,0.47-1.18,0.95-1.76,1.42c-0.54,0.43-1.07,0.87-1.6,1.31c-0.56,0.45-1.12,0.9-1.68,1.36
		c-0.1,0.08-0.19,0.17-0.35,0.27c1.21-4.23,2.4-8.41,3.59-12.6C47.52,24.77,47.54,24.78,47.55,24.78z"/>
	<path class="st4" d="M17.22,26.57c0-1.65,0-3.31,0-4.96c0-0.25,0-0.24,0.25-0.21c0.18,0.02,0.37,0.03,0.56,0
		c0.26-0.04,0.27-0.04,0.27,0.23c0,1.41,0,2.83,0,4.24c0,0.08-0.05,0.2,0.04,0.22c0.08,0.02,0.16-0.06,0.23-0.12
		c0.29-0.29,0.54-0.61,0.78-0.93c0.79-1.04,1.58-2.08,2.37-3.12c0.11-0.14,0.22-0.28,0.33-0.43c0.07-0.09,0.15-0.14,0.26-0.12
		c0.2,0.05,0.4,0.05,0.6,0c0.05-0.01,0.11-0.02,0.14,0.02c0.04,0.05-0.03,0.08-0.05,0.12c-0.52,0.63-1.03,1.27-1.55,1.9
		c-0.57,0.69-1.14,1.38-1.68,2.09c-0.01,0.02-0.03,0.04-0.05,0.05c-0.11,0.15-0.31,0.3-0.3,0.45c0.01,0.17,0.19,0.34,0.31,0.51
		c0.67,0.96,1.34,1.92,2.01,2.87c0.51,0.72,0.97,1.48,1.45,2.22c0.03,0.05,0.1,0.11,0.05,0.17c-0.04,0.05-0.11,0.01-0.17,0.01
		c-0.33-0.02-0.66-0.03-0.99,0c-0.11,0.01-0.17,0-0.22-0.09c-0.76-1.39-1.72-2.65-2.59-3.97c-0.24-0.36-0.48-0.71-0.72-1.07
		c-0.02-0.03-0.04-0.06-0.06-0.09c-0.04-0.05-0.09-0.1-0.15-0.08c-0.06,0.02-0.03,0.09-0.03,0.14c0,1.63,0,3.27,0,4.9
		c0,0.25,0,0.24-0.25,0.23c-0.24,0-0.48-0.03-0.72,0.01c-0.09,0.01-0.11-0.02-0.11-0.09c0-0.05,0-0.11,0-0.16
		C17.22,29.88,17.22,28.22,17.22,26.57z"/>
	<path class="st1" d="M10.54,31.76c0-0.04-0.01-0.08-0.01-0.13c0-3.38,0-6.76,0-10.14c0-0.04,0-0.08,0.01-0.13
		c0.28,0.03,0.57,0.07,0.85,0c0.08-0.02,0.12,0.02,0.12,0.11c0,0.17,0,0.34,0,0.5c0,1.41,0,2.81,0,4.22c0,0.06,0,0.13,0,0.23
		c0.18-0.26,0.34-0.49,0.53-0.69c0.48-0.51,1.08-0.75,1.78-0.67c0.71,0.08,1.25,0.45,1.62,1.06c0.34,0.56,0.48,1.17,0.54,1.82
		c0.07,0.83-0.08,1.62-0.43,2.36c-0.37,0.79-0.95,1.37-1.84,1.54c-0.84,0.16-1.55-0.09-2.05-0.81c-0.07-0.1-0.11-0.11-0.19-0.02
		c-0.19,0.2-0.4,0.39-0.59,0.6C10.77,31.73,10.67,31.78,10.54,31.76z M14.92,28.36c-0.01-0.55-0.06-1.07-0.25-1.58
		c-0.25-0.68-0.77-1.2-1.63-1.09c-0.37,0.05-0.67,0.21-0.89,0.5c-0.46,0.58-0.58,1.27-0.65,1.98c-0.04,0.4-0.06,0.8-0.01,1.21
		c0.06,0.54,0.2,1.05,0.51,1.51c0.29,0.42,0.9,0.64,1.4,0.53c0.49-0.11,0.81-0.44,1.03-0.86C14.81,29.86,14.9,29.1,14.92,28.36z"/>
	<path class="st4" d="M36.39,26.28c0.18-0.28,0.38-0.51,0.62-0.72c0.32-0.3,0.71-0.45,1.15-0.48c0.32-0.02,0.64,0.01,0.95,0.14
		c0.52,0.21,0.8,0.63,0.95,1.14c0.14,0.48,0.19,0.97,0.19,1.47c0,1.25,0,2.5,0,3.75c0,0.16-0.01,0.24-0.22,0.2
		c-0.2-0.04-0.41-0.03-0.61,0c-0.14,0.02-0.15-0.03-0.15-0.14c0-0.04,0-0.08,0-0.13c0-1.13,0.01-2.26-0.01-3.39
		c-0.01-0.44-0.02-0.89-0.13-1.33c-0.25-0.97-1.36-1.33-2.13-0.68c-0.36,0.3-0.48,0.71-0.57,1.14c-0.04,0.19-0.04,0.39-0.04,0.59
		c0,1.24,0,2.48,0,3.72c0,0.23,0,0.22-0.23,0.21c-0.21-0.01-0.42-0.03-0.63,0.01c-0.11,0.02-0.14-0.03-0.15-0.12
		c0-0.05,0-0.11,0-0.16c0-3.28,0-6.56,0-9.84c0-0.28,0-0.28,0.28-0.25c0.17,0.02,0.34,0.02,0.5-0.01c0.21-0.04,0.23-0.03,0.23,0.19
		c0,1.5,0,3.01,0,4.51C36.39,26.16,36.39,26.22,36.39,26.28z"/>
	<path class="st2" d="M59.66,26.19c-0.81-1.12-1.6-2.22-2.39-3.32c-0.33-0.46-0.66-0.91-1-1.36c-0.08-0.11-0.05-0.15,0.07-0.17
		c0.57-0.1,1.13-0.19,1.7-0.29c0.73-0.13,1.46-0.26,2.18-0.39c0.48-0.09,0.95-0.18,1.43-0.26c0.17-0.03,0.16,0.02,0.11,0.13
		c-0.22,0.61-0.44,1.21-0.67,1.82c-0.28,0.76-0.56,1.51-0.84,2.27c-0.17,0.47-0.34,0.95-0.52,1.42
		C59.73,26.08,59.7,26.13,59.66,26.19z"/>
	<path class="st4" d="M28.33,29.09c0,0.61,0,1.22,0,1.83c0,0.31,0.13,0.42,0.44,0.37c0.08-0.01,0.18-0.08,0.2,0.05
		c0.02,0.11,0.04,0.23-0.13,0.29c-0.26,0.09-0.52,0.12-0.79,0.1c-0.31-0.03-0.55-0.28-0.65-0.66c-0.01-0.04,0.01-0.1-0.04-0.11
		c-0.05-0.01-0.06,0.05-0.09,0.08c-0.42,0.48-0.93,0.78-1.58,0.84c-1.04,0.1-1.76-0.68-1.78-1.63c-0.01-0.4,0.04-0.78,0.25-1.12
		c0.28-0.45,0.73-0.66,1.22-0.78c0.45-0.11,0.91-0.19,1.36-0.29c0.54-0.12,0.7-0.4,0.63-1c-0.03-0.28-0.08-0.56-0.23-0.8
		c-0.41-0.66-1.35-0.78-2-0.36c-0.23,0.15-0.41,0.35-0.52,0.6c-0.02,0.05-0.04,0.12-0.12,0.11c-0.09-0.01-0.06-0.09-0.06-0.15
		c0-0.12,0.01-0.24,0-0.36c-0.04-0.24,0.09-0.37,0.27-0.49c0.58-0.38,1.21-0.6,1.91-0.54c0.82,0.08,1.35,0.46,1.59,1.38
		c0.08,0.29,0.11,0.6,0.11,0.9C28.33,27.94,28.33,28.51,28.33,29.09z M27.36,29.46c-0.01-0.28,0.02-0.62-0.03-0.96
		c-0.02-0.12-0.04-0.15-0.16-0.12c-0.35,0.09-0.7,0.15-1.05,0.24c-0.3,0.08-0.59,0.2-0.82,0.42c-0.43,0.39-0.44,0.9-0.34,1.41
		c0.12,0.6,0.55,0.91,1.16,0.85c0.44-0.04,0.74-0.31,1.03-0.62c0.18-0.2,0.25-0.42,0.22-0.68C27.35,29.83,27.36,29.67,27.36,29.46z"
		/>
	<path class="st4" d="M32.22,25.08c0.32-0.02,0.68,0.09,1.03,0.23c0.21,0.09,0.22,0.12,0.15,0.33c-0.06,0.21-0.12,0.41-0.18,0.62
		c-0.02,0.06-0.01,0.16-0.1,0.17c-0.08,0.01-0.09-0.08-0.12-0.14c-0.17-0.34-0.39-0.66-0.79-0.75c-0.57-0.12-1.1,0.23-1.22,0.83
		c-0.07,0.37-0.02,0.71,0.22,1.01c0.18,0.23,0.46,0.34,0.72,0.46c0.25,0.11,0.5,0.19,0.75,0.29c0.86,0.33,1.24,1.01,1.09,1.91
		c-0.07,0.46-0.24,0.87-0.56,1.2c-0.35,0.36-0.8,0.56-1.3,0.63c-0.56,0.08-1.09-0.04-1.6-0.28c-0.16-0.08-0.26-0.15-0.17-0.36
		c0.08-0.2,0.11-0.43,0.15-0.64c0.01-0.06,0-0.13,0.08-0.14c0.08-0.01,0.1,0.06,0.13,0.11c0.16,0.23,0.32,0.46,0.55,0.63
		c0.39,0.28,0.8,0.37,1.23,0.15c0.43-0.22,0.66-0.58,0.68-1.08c0.02-0.7-0.32-0.98-0.93-1.22c-0.3-0.12-0.61-0.2-0.91-0.32
		c-0.55-0.22-0.88-0.62-0.95-1.2c-0.07-0.57-0.02-1.13,0.31-1.62C30.88,25.31,31.46,25.07,32.22,25.08z"/>
	<path class="st1" d="M51.1,30.77c0.39-0.24,0.8-0.41,1.2-0.62c1.02-0.52,2.06-1.02,3.08-1.56c0.75-0.39,1.51-0.75,2.25-1.14
		c0.52-0.28,1.06-0.53,1.59-0.81c0.06-0.03,0.12-0.06,0.21-0.1c-0.09,0.36-0.2,0.68-0.32,1c-0.04,0.11-0.14,0.12-0.22,0.16
		c-1.14,0.46-2.28,0.92-3.42,1.37c-0.93,0.37-1.87,0.74-2.8,1.12c-0.47,0.19-0.94,0.38-1.41,0.58c-0.04,0.02-0.09,0.04-0.14,0.04
		C51.12,30.79,51.11,30.78,51.1,30.77z"/>
	<path class="st3" d="M38.29,14.66c0.45,0,0.85-0.01,1.25,0c0.18,0,0.23,0.18,0.32,0.29c0.86,1.09,1.72,2.19,2.58,3.28
		c0.23,0.29,0.45,0.59,0.68,0.89c-0.1,0.05-0.13-0.02-0.18-0.06c-0.56-0.53-1.11-1.07-1.67-1.6c-0.63-0.59-1.26-1.17-1.88-1.77
		c-0.31-0.3-0.63-0.58-0.94-0.88C38.4,14.78,38.36,14.74,38.29,14.66z"/>
	<path class="st1" d="M51.13,30.8c-0.04,0.04-0.09,0.07-0.15,0.06c0.02-0.06,0.08-0.06,0.12-0.09
		C51.11,30.78,51.12,30.79,51.13,30.8z"/>
	<path class="st3" d="M43.21,19.25c0,0,0,0.01,0,0.01c-0.01-0.01-0.01-0.01-0.02-0.02c0,0,0.01-0.01,0.01-0.01
		C43.2,19.24,43.2,19.25,43.21,19.25z"/>
</g>
</svg>
