<svg id="Layer_1" data-name="Layer 1" xmlns="http://www.w3.org/2000/svg" viewBox="0 0 43.94 43.94"><defs><style>.cls-1{fill:#fefefe;}.cls-2{fill:#b91f61;}.cls-3{fill:#681e5b;}.cls-4{fill:#3b91cf;}.cls-5{fill:#ec1c24;}.cls-6{fill:#fdde91;}.cls-7{fill:#faba1b;}.cls-8{fill:#1a6fa3;}.cls-9{fill:#c42530;}.cls-10{fill:#5d1d54;}.cls-11{fill:#a62761;}.cls-12{fill:#7b8fb9;}.cls-13{fill:#fbcb54;}.cls-14{fill:#fbcd5d;}.cls-15{fill:#b6366f;}.cls-16{fill:#b7366e;}.cls-17{fill:#914779;}.cls-18{fill:#b8366e;}.cls-19{fill:#b92162;}.cls-20{fill:#c4def0;}.cls-21{fill:#cfe4f3;}.cls-22{fill:#c3ddf0;}.cls-23{fill:#dfecf6;}.cls-24{fill:#691f5b;}.cls-25{fill:#723367;}.cls-26{fill:#733569;}.cls-27{fill:#723267;}.cls-28{fill:#db353f;}.cls-29{fill:#74366a;}.cls-30{fill:#dc3840;}.cls-31{fill:#db3740;}</style></defs><path class="cls-1" d="M42,22a20.06,20.06,0,1,1-20.12-20A20.07,20.07,0,0,1,42,22Z"/><path class="cls-2" d="M24.46,31.42a14.06,14.06,0,0,1-4.37-2.58,16.54,16.54,0,0,0-6.95-3.35A27.07,27.07,0,0,0,10,25a2.16,2.16,0,0,1-1.38-.61,1.08,1.08,0,0,1-.3-1,1.41,1.41,0,0,1,.35-.66,11.24,11.24,0,0,0,.84-1,.46.46,0,0,1,.12-.12A.84.84,0,0,0,10,21.3a.68.68,0,0,1,.12-.12.92.92,0,0,0,.31-.31.68.68,0,0,1,.12-.12,2.49,2.49,0,0,0,.46-.4l.1-.07c.26-.2.51-.42.77-.63a.71.71,0,0,1,.45-.2,7.09,7.09,0,0,1,1.54.62c1.08.44,2.1,1,3.15,1.52a.65.65,0,0,1,.38.31,9.64,9.64,0,0,1,.06,1.7,4.07,4.07,0,0,0,.07.85,1.15,1.15,0,0,0,.91.9,4.19,4.19,0,0,0,.93.09c1,0,2-.06,3,0a5.42,5.42,0,0,1,1.44,1.65,5.41,5.41,0,0,1,.91,2.45c0,.36,0,.72,0,1.09A.86.86,0,0,1,24.46,31.42Z"/><path class="cls-3" d="M24.46,31.42l.09-.72a3.45,3.45,0,0,0,0-1.2A6.71,6.71,0,0,0,22.79,26l-.38-.45c.1-.19.29-.2.47-.25a1.17,1.17,0,0,0,.93-1.25c0-.46,0-.91,0-1.36,0-.28-.1-.42-.4-.41-.69,0-1.39,0-2.08,0-.14,0-.33,0-.34.18s.2.2.34.21c.4,0,.8,0,1.2,0s.56.17.53.59a1.44,1.44,0,0,1-.64,1.23,2.13,2.13,0,0,1-2-.49,7.09,7.09,0,0,0-1.32-.92,2.8,2.8,0,0,1-.76-.61,2.37,2.37,0,0,1,.08-1.81,1.3,1.3,0,0,1,1.22-.79c.79,0,1.59,0,2.38,0a.94.94,0,0,1,.73.3,1,1,0,0,0,1.18.31,1.37,1.37,0,0,1,1,.71,22.65,22.65,0,0,1,0,2.33c0,.15,0,.29,0,.43a1.28,1.28,0,0,0,1.35,1.43c.69,0,1.39,0,2.09,0a2.31,2.31,0,0,1,.59,0,1.14,1.14,0,0,1,.54.52,15.45,15.45,0,0,1,2,4.24.68.68,0,0,1,0,.54,3.64,3.64,0,0,1-2,1.09A7.93,7.93,0,0,1,24.46,31.42Z"/><path class="cls-4" d="M35.24,21.83a25.28,25.28,0,0,1-1.55,5.68c-.06.13-.12.26-.19.38s-.24-.07-.26-.21,0-.25-.08-.37a20.72,20.72,0,0,0-.84-4,13.68,13.68,0,0,0-.75-1.76A1,1,0,0,1,31.4,21c.32-1-.06-1.58-1.28-1.83a.87.87,0,0,1-.33-.27,15.06,15.06,0,0,0-7.41-4.51c-.16-.16-.51,0-.56-.34,1-.32,1.92-.72,2.9-1s1.69-.33,2.51-.6a.28.28,0,0,1,.13,0,8.35,8.35,0,0,1,3.94,2.15,13.45,13.45,0,0,1,3.4,5.37A6.82,6.82,0,0,1,35.24,21.83Z"/><path class="cls-5" d="M31.45,21a16.25,16.25,0,0,1,1.82,6.28,4,4,0,0,1,0,1,7.79,7.79,0,0,1-1.46,2.21c-.09.1-.17.23-.33.25a15.13,15.13,0,0,0-2.42-5.19c.14-.17.34-.13.52-.14a6.15,6.15,0,0,0,.85-.05,1.19,1.19,0,0,0,1-1.26c0-.16.06-.37-.16-.43a.63.63,0,0,0-.61.08l-.06.07c-.54,1-1.46.89-2.38.78-.65-.6-1.2-1.31-1.85-1.92-.24-.23-.57-.38-.7-.72a2.16,2.16,0,0,1,0-.76,1.35,1.35,0,0,1,1.43-1.33c.72,0,1.45,0,2.17,0a1.38,1.38,0,0,1,1.1.47,1.05,1.05,0,0,0,.84.49A.22.22,0,0,1,31.45,21Z"/><path class="cls-3" d="M17.28,21.85c-.75-.37-1.49-.75-2.24-1.1-.91-.43-1.82-.87-2.77-1.22-.09-.06-.2,0-.29,0s-.18-.1-.15-.23.14-.16.26-.2c.23.17.37-.11.57-.12.46-.1.76-.47,1.15-.68l.15-.1a9.8,9.8,0,0,0,1.15-.74,1.21,1.21,0,0,1,.3-.2,1.65,1.65,0,0,0,.62-.31l.11-.05c.32-.08.57-.32.91-.35l.19,0a37.11,37.11,0,0,1,4.25,2.19c.13.08.4.18.17.43a3.69,3.69,0,0,1-1.1.07c-.59,0-1.19,0-1.78,0a1.23,1.23,0,0,0-1.33,1.28c0,.28,0,.57,0,.85S17.44,21.73,17.28,21.85Z"/><path class="cls-6" d="M35.24,21.83c-.36-1-.67-2-1.12-3a11.39,11.39,0,0,0-4.91-5.61,13.44,13.44,0,0,0-1.82-.71.17.17,0,0,1,.15-.13c2.08-.18,4.12-.13,5.81,1.33a6.27,6.27,0,0,1,2.13,4.66,2.26,2.26,0,0,0,0,.45l0,.11v.28c0,.06,0,0,0,0s0-.29-.07-.42a3.37,3.37,0,0,1,0-.55c0-.14,0-.3.09-.41a4.9,4.9,0,0,1,0,1.75,1.72,1.72,0,0,1-.12.74c-.09-.07,0-.18,0-.27,0,.11,0,.24,0,.34A7.84,7.84,0,0,1,35.24,21.83Z"/><path class="cls-7" d="M35.4,18.42c-.24-2.48-1.2-4.51-3.63-5.53a6.32,6.32,0,0,0-3-.45c-.45,0-.91,0-1.36.05l-.11,0c-.34,0-.72.1-1-.23a5.65,5.65,0,0,1,1.9-.39,6.77,6.77,0,0,1,5,1.15,6.24,6.24,0,0,1,2.26,4.42c.08.26,0,.53.06.79v.58c0,.05,0,.05-.07,0h0C35.38,18.72,35.49,18.55,35.4,18.42Z"/><path class="cls-8" d="M26.28,12.29c.33.12.69.06,1,.23a5.79,5.79,0,0,1-1.49.36,23,23,0,0,0-3,1,2,2,0,0,1-.94.21.27.27,0,0,1-.45-.1,21.69,21.69,0,0,1,3.25-1.27A5.33,5.33,0,0,1,26.28,12.29Z"/><path class="cls-9" d="M21.36,14a.85.85,0,0,0,.45.1c.18.14.45.06.62.23-.34.17-.73.14-1.07.29a1.64,1.64,0,0,0-.87.36.46.46,0,0,1-.16.07,1.51,1.51,0,0,0-.74.27.31.31,0,0,1-.1,0,4,4,0,0,0-.82.37l-.1.06a2.64,2.64,0,0,0-.8.41.72.72,0,0,1-.21.12c-.23.06-.45.18-.68.24h-.2c-.12-.05-.26-.08-.24-.26a34.64,34.64,0,0,1,4-2A2.85,2.85,0,0,1,21.36,14Z"/><path class="cls-10" d="M16.44,16.29l.26.18c.11.14,0,.2-.11.25s-.34.15-.49.25h0c-.22.12-.45.23-.68.34l-.25.17c-.39.28-.83.48-1.2.78l-.08.08c-.45.14-.74.57-1.2.68l-.39.26c-.07,0-.15.11-.23,0s0-.16,0-.24A23,23,0,0,1,16.44,16.29Z"/><path class="cls-11" d="M11.83,19.28l.17.17c0,.25-.22.35-.4.47s-.33.34-.53.46h0a5.4,5.4,0,0,0-.52.43l-.08.08-.34.35-.08.08c-.12.11-.24.23-.35.35l-.08.08c-.31.32-.57.68-.86,1l-.4.58a1,1,0,0,1,.17-.64A12.71,12.71,0,0,1,11.83,19.28Z"/><path class="cls-12" d="M33.3,28.32l0-1c.18.16-.07.49.23.6C33.5,28.07,33.37,28.18,33.3,28.32Z"/><path class="cls-13" d="M35.55,18.26a1.52,1.52,0,0,1-.06-.79.6.6,0,0,1,.08.35Z"/><path class="cls-14" d="M35.48,20.38c-.14-.12-.07-.27,0-.41l0,.34S35.48,20.36,35.48,20.38Z"/><path class="cls-1" d="M17.28,21.85a9,9,0,0,0,0-1.27,1.37,1.37,0,0,1,1.5-1.48l2.93,0a1.88,1.88,0,0,1,2.07.54,1,1,0,0,1,.22,1,1,1,0,0,1-1.33-.2.85.85,0,0,0-.71-.33H19.6a1.16,1.16,0,0,0-1.2,1,4.27,4.27,0,0,0,0,1.47c.09.3.05.62.13.93a1.1,1.1,0,0,0,1.18.95,20.26,20.26,0,0,0,2.58.07,1.53,1.53,0,0,0,.63-1.42c0-.22-.18-.18-.31-.18-.51,0-1,0-1.53,0-.29,0-.32-.14-.32-.37s0-.39.3-.38c.88,0,1.76,0,2.64,0,.19,0,.28.07.27.27,0,.64,0,1.28,0,1.92a1.32,1.32,0,0,1-1.06,1.17l-.5.1c-1.17-.08-2.33,0-3.49,0a1.73,1.73,0,0,1-.87-.16,1.36,1.36,0,0,1-.74-1.29C17.3,23.35,17.35,22.6,17.28,21.85Z"/><path class="cls-15" d="M11.07,20.38c.22-.4.7-.54.93-.93a.27.27,0,0,1,.27.08,4.47,4.47,0,0,0-.86.64C11.3,20.26,11.23,20.38,11.07,20.38Z"/><path class="cls-16" d="M8.76,22.78a2.54,2.54,0,0,1,.86-1A3.69,3.69,0,0,1,8.76,22.78Z"/><path class="cls-17" d="M24.55,29.5a1.77,1.77,0,0,1,0,1.2Z"/><path class="cls-15" d="M10.55,20.81c.06-.28.29-.35.52-.43C10.93,20.57,10.81,20.76,10.55,20.81Z"/><path class="cls-18" d="M10.13,21.24a.37.37,0,0,1,.34-.35A.38.38,0,0,1,10.13,21.24Z"/><path class="cls-18" d="M9.7,21.67a.37.37,0,0,1,.35-.35A.39.39,0,0,1,9.7,21.67Z"/><path class="cls-5" d="M24,20.59c-.21-1.11-.67-1.48-1.83-1.49l-.46,0a30.71,30.71,0,0,0-3.69-2l-.84-.4c-.08-.08-.17-.17,0-.25s.25-.11.36-.19l.16-.09c.28-.16.59-.24.86-.42h0c.3-.17.64-.26.94-.43h0c.23-.16.53-.19.77-.34h.16c.21-.3.6-.24.86-.43a2,2,0,0,1,1.12-.19,15.37,15.37,0,0,1,5.27,2.52,11.25,11.25,0,0,1,2.38,2.24c-.14.22-.37.18-.58.18-1,0-2,0-3.05,0S25,19.66,25,20.64c0,.18,0,.37-.16.51Z"/><path class="cls-1" d="M24.8,21.15c0-.21,0-.43,0-.64a1.31,1.31,0,0,1,1.41-1.41l3.84,0a4.7,4.7,0,0,1,.75.13,1.43,1.43,0,0,1,.8,1.65c0,.09-.11.11-.18.16a.73.73,0,0,0-.25,0,.7.7,0,0,1-.81-.41,1.06,1.06,0,0,0-1-.5H27.12a1.16,1.16,0,0,0-1.26,1.16,2.18,2.18,0,0,0,0,.88,3.94,3.94,0,0,1,.09,1c0,1,.43,1.34,1.39,1.35a1.52,1.52,0,0,1,.87.12,5.05,5.05,0,0,0,1.4,0,1.07,1.07,0,0,0,.87-.73c.21-.5.64-.23,1-.24s.17.3.17.47a1.34,1.34,0,0,1-1.49,1.5,5.38,5.38,0,0,0-1.06,0c-.86-.08-1.72,0-2.58,0-1.22,0-1.67-.46-1.68-1.66C24.82,23,24.88,22.06,24.8,21.15Z"/><path class="cls-19" d="M22.3,24.48c-.19.15-.41.09-.61.09-.61,0-1.22,0-1.83,0a1.32,1.32,0,0,1-1.5-1.44,1.08,1.08,0,0,1,.05-.59,24.68,24.68,0,0,1,2.45,1.74,1.23,1.23,0,0,0,1,.21Z"/><path class="cls-20" d="M32.73,19.61c-.21.15-.14-.06-.16-.13s0-.18-.13-.18-.12.06-.14.14,0,.23-.13.23-.11-.15-.11-.24-.19-.13-.22-.29a2.06,2.06,0,0,1,.82,0C32.82,19.26,32.63,19.46,32.73,19.61Z"/><path class="cls-21" d="M33.16,19.25c.05-.16.19-.21.29-.11a.47.47,0,0,1,0,.52c-.2,0-.07-.21-.21-.22S33.12,19.35,33.16,19.25Z"/><path class="cls-22" d="M33.16,19.25a.22.22,0,0,0,.1.19c-.06.1-.08.25-.21.24s-.2-.17-.23-.31a.15.15,0,0,1,.11-.12C33,19.32,33.09,19.33,33.16,19.25Z"/><path class="cls-23" d="M32.93,19.25l-.11.12c-.09.06,0,.16-.09.24-.12-.15,0-.33-.07-.49C32.79,19.08,32.89,19.11,32.93,19.25Z"/><path class="cls-24" d="M28.24,24.54a4.69,4.69,0,0,1-1.4,0,1.09,1.09,0,0,1-.93-.93,3.89,3.89,0,0,1,0-1.52A15.5,15.5,0,0,1,28.24,24.54Z"/><path class="cls-25" d="M14,18.26a2.75,2.75,0,0,1,1.2-.78A3.36,3.36,0,0,1,14,18.26Z"/><path class="cls-26" d="M12.69,19c.41-.2.69-.65,1.2-.68l-1,.72A.12.12,0,0,1,12.69,19Z"/><path class="cls-27" d="M16.1,17c.08-.3.53-.18.6-.5h.16c.05.07.24,0,.18.18C16.7,16.68,16.46,17,16.1,17Z"/><path class="cls-28" d="M17,16.64l-.18-.18a2.78,2.78,0,0,1,.7-.25c0,.21-.45.12-.35.44Z"/><path class="cls-29" d="M15.42,17.31A.92.92,0,0,1,16.1,17,.79.79,0,0,1,15.42,17.31Z"/><path class="cls-13" d="M35.48,18.85h.07v.49h-.07Z"/><path class="cls-13" d="M35.4,18.42c.12.13.07.28.08.43C35.35,18.73,35.4,18.57,35.4,18.42Z"/><path class="cls-30" d="M19.52,15.27a1.54,1.54,0,0,1-.94.43A1.55,1.55,0,0,1,19.52,15.27Z"/><path class="cls-31" d="M21.31,14.5c-.22.27-.6.24-.86.43C20.61,14.52,21,14.6,21.31,14.5Z"/><path class="cls-28" d="M18.58,15.7a1.33,1.33,0,0,1-.86.42A1.43,1.43,0,0,1,18.58,15.7Z"/><path class="cls-30" d="M20.29,14.93a1,1,0,0,1-.77.34A1,1,0,0,1,20.29,14.93Z"/></svg>