<svg id="Layer_1" data-name="Layer 1" xmlns="http://www.w3.org/2000/svg" viewBox="0 0 89.49 45.08"><defs><style>.cls-1{fill:#050505;}.cls-2{fill:#fff;}</style></defs><rect class="cls-1" width="89.49" height="45.08" rx="2.41"/><path class="cls-2" d="M9.45,19.48C8,22,8.92,25.82,10.53,28.14c.8,1.16,1.61,2.2,2.72,2.2h.06A3.47,3.47,0,0,0,14.58,30a3.36,3.36,0,0,1,1.49-.36A3.23,3.23,0,0,1,17.5,30a3.11,3.11,0,0,0,1.37.32c1.25,0,2-1.14,2.69-2.13a9.65,9.65,0,0,0,1.19-2.42v0a.14.14,0,0,0-.07-.17h0a3.58,3.58,0,0,1-2.18-3.28,3.68,3.68,0,0,1,1.75-3.09h0a.15.15,0,0,0,0-.2,4.07,4.07,0,0,0-3.19-1.73h-.28a5.45,5.45,0,0,0-2,.5,3.31,3.31,0,0,1-1,.28,3,3,0,0,1-1-.29,4.8,4.8,0,0,0-1.75-.44h0A4.28,4.28,0,0,0,9.45,19.48Z"/><path class="cls-2" d="M19.1,13.16a4,4,0,0,0-2.59,1.33,3.68,3.68,0,0,0-.93,2.73.15.15,0,0,0,.13.12h.18a3.31,3.31,0,0,0,2.44-1.25,3.81,3.81,0,0,0,.91-2.8A.15.15,0,0,0,19.1,13.16Z"/><path class="cls-2" d="M29.31,14.56H31a2.54,2.54,0,0,1,1.18.28,2,2,0,0,1,.8.75,2.14,2.14,0,0,1,.28,1.1,2.12,2.12,0,0,1-.28,1.1,2,2,0,0,1-.8.75,2.42,2.42,0,0,1-1.18.28H29.31Zm1.66,4a2.19,2.19,0,0,0,1-.24,1.61,1.61,0,0,0,.69-.65,2,2,0,0,0,0-1.92,1.61,1.61,0,0,0-.69-.65,2.19,2.19,0,0,0-1-.24H29.62v3.7Z"/><path class="cls-2" d="M34.66,18.64a1.51,1.51,0,0,1-.57-.58,1.63,1.63,0,0,1-.21-.83,1.65,1.65,0,0,1,.21-.83,1.56,1.56,0,0,1,.57-.57,1.67,1.67,0,0,1,1.62,0,1.56,1.56,0,0,1,.57.57,1.65,1.65,0,0,1,.2.83,1.62,1.62,0,0,1-.2.83,1.51,1.51,0,0,1-.57.58,1.74,1.74,0,0,1-1.62,0Zm1.46-.24a1.25,1.25,0,0,0,.46-.48,1.49,1.49,0,0,0,0-1.38,1.22,1.22,0,0,0-.46-.47,1.33,1.33,0,0,0-1.3,0,1.16,1.16,0,0,0-.46.47,1.49,1.49,0,0,0,0,1.38,1.18,1.18,0,0,0,.46.48,1.33,1.33,0,0,0,1.3,0Z"/><path class="cls-2" d="M42.44,15.65l-1.21,3.17H41l-1.07-2.75L38.8,18.82h-.27l-1.21-3.17h.29l1.06,2.83,1.08-2.83H40l1.08,2.82,1.07-2.82Z"/><path class="cls-2" d="M45.63,16A1.34,1.34,0,0,1,46,17v1.86h-.3V17a1.14,1.14,0,0,0-.27-.82,1,1,0,0,0-.76-.27,1.17,1.17,0,0,0-.88.33,1.21,1.21,0,0,0-.32.9v1.69h-.31V15.65h.29v.68a1.29,1.29,0,0,1,.49-.52,1.49,1.49,0,0,1,.77-.19A1.27,1.27,0,0,1,45.63,16Z"/><path class="cls-2" d="M47.23,14.31h.31v4.51h-.31Z"/><path class="cls-2" d="M49.25,18.64a1.45,1.45,0,0,1-.57-.58,1.63,1.63,0,0,1-.21-.83,1.65,1.65,0,0,1,.21-.83,1.49,1.49,0,0,1,.57-.57,1.67,1.67,0,0,1,1.62,0,1.56,1.56,0,0,1,.57.57,1.76,1.76,0,0,1,.2.83,1.73,1.73,0,0,1-.2.83,1.51,1.51,0,0,1-.57.58,1.74,1.74,0,0,1-1.62,0Zm1.46-.24a1.33,1.33,0,0,0,.46-.48,1.57,1.57,0,0,0,0-1.38,1.3,1.3,0,0,0-.46-.47,1.19,1.19,0,0,0-.65-.17,1.23,1.23,0,0,0-.66.17,1.2,1.2,0,0,0-.45.47,1.49,1.49,0,0,0,0,1.38,1.23,1.23,0,0,0,.45.48,1.32,1.32,0,0,0,.66.17A1.29,1.29,0,0,0,50.71,18.4Z"/><path class="cls-2" d="M54.55,15.92a1.18,1.18,0,0,1,.31.89v2h-.29v-.57a1.1,1.1,0,0,1-.44.44,1.54,1.54,0,0,1-.7.15,1.29,1.29,0,0,1-.84-.25.86.86,0,0,1,0-1.29,1.33,1.33,0,0,1,.9-.25h1.09v-.26a.89.89,0,0,0-.24-.67,1,1,0,0,0-.7-.23A1.78,1.78,0,0,0,53,16a1.59,1.59,0,0,0-.49.29l-.15-.22a1.78,1.78,0,0,1,.57-.33,2.1,2.1,0,0,1,.7-.12A1.28,1.28,0,0,1,54.55,15.92Zm-.41,2.49a1.07,1.07,0,0,0,.42-.53v-.59H53.48a1,1,0,0,0-.68.17.56.56,0,0,0-.21.46.59.59,0,0,0,.23.49,1,1,0,0,0,.65.18A1.2,1.2,0,0,0,54.14,18.41Z"/><path class="cls-2" d="M58.94,14.31v4.51h-.3v-.75a1.27,1.27,0,0,1-.53.57,1.5,1.5,0,0,1-.77.2,1.67,1.67,0,0,1-.8-.2,1.42,1.42,0,0,1-.56-.58,1.75,1.75,0,0,1,0-1.66,1.34,1.34,0,0,1,.56-.57,1.57,1.57,0,0,1,.8-.21,1.49,1.49,0,0,1,.76.2,1.45,1.45,0,0,1,.54.56V14.31ZM58,18.4a1.25,1.25,0,0,0,.46-.48,1.49,1.49,0,0,0,0-1.38,1.22,1.22,0,0,0-.46-.47,1.33,1.33,0,0,0-1.3,0,1.16,1.16,0,0,0-.46.47,1.49,1.49,0,0,0,0,1.38,1.18,1.18,0,0,0,.46.48,1.33,1.33,0,0,0,1.3,0Z"/><path class="cls-2" d="M62.21,18.64a1.51,1.51,0,0,1-.57-.58,1.62,1.62,0,0,1-.2-.83,1.65,1.65,0,0,1,.2-.83,1.56,1.56,0,0,1,.57-.57,1.67,1.67,0,0,1,1.62,0,1.56,1.56,0,0,1,.57.57,1.65,1.65,0,0,1,.21.83,1.63,1.63,0,0,1-.21.83,1.51,1.51,0,0,1-.57.58,1.74,1.74,0,0,1-1.62,0Zm1.46-.24a1.18,1.18,0,0,0,.46-.48,1.49,1.49,0,0,0,0-1.38,1.16,1.16,0,0,0-.46-.47,1.33,1.33,0,0,0-1.3,0,1.22,1.22,0,0,0-.46.47,1.57,1.57,0,0,0,0,1.38,1.25,1.25,0,0,0,.46.48,1.33,1.33,0,0,0,1.3,0Z"/><path class="cls-2" d="M68,16a1.34,1.34,0,0,1,.35,1v1.86h-.31V17a1.14,1.14,0,0,0-.27-.82,1,1,0,0,0-.75-.27,1.19,1.19,0,0,0-.89.33,1.25,1.25,0,0,0-.32.9v1.69h-.3V15.65h.29v.68a1.23,1.23,0,0,1,.49-.52,1.47,1.47,0,0,1,.77-.19A1.27,1.27,0,0,1,68,16Z"/><path class="cls-2" d="M72.77,18.62a.63.63,0,0,1-.29.16,1,1,0,0,1-.36.06.84.84,0,0,1-.64-.23.89.89,0,0,1-.22-.63V15.91h-.58v-.26h.58V15h.3v.7h1v.26h-1v2a.66.66,0,0,0,.15.47.57.57,0,0,0,.44.16.71.71,0,0,0,.5-.18Z"/><path class="cls-2" d="M76.11,16a1.34,1.34,0,0,1,.34,1v1.86h-.3V17a1.14,1.14,0,0,0-.27-.82,1,1,0,0,0-.76-.27,1.18,1.18,0,0,0-.88.33,1.25,1.25,0,0,0-.32.9v1.69h-.3V14.31h.3v2a1.15,1.15,0,0,1,.49-.51,1.53,1.53,0,0,1,.76-.18A1.28,1.28,0,0,1,76.11,16Z"/><path class="cls-2" d="M80.39,17.3H77.66a1.31,1.31,0,0,0,.19.66,1.15,1.15,0,0,0,.48.45,1.39,1.39,0,0,0,.68.16,1.56,1.56,0,0,0,.57-.11,1.14,1.14,0,0,0,.44-.34l.18.21a1.43,1.43,0,0,1-.52.38,1.72,1.72,0,0,1-.68.13,1.74,1.74,0,0,1-.84-.2,1.47,1.47,0,0,1-.58-.58,1.63,1.63,0,0,1-.21-.83,1.75,1.75,0,0,1,.19-.83,1.51,1.51,0,0,1,.55-.57,1.54,1.54,0,0,1,1.55,0,1.39,1.39,0,0,1,.54.56,1.76,1.76,0,0,1,.2.83ZM78.28,16a1.13,1.13,0,0,0-.42.42,1.37,1.37,0,0,0-.19.61H80.1a1.23,1.23,0,0,0-.61-1,1.3,1.3,0,0,0-1.21,0Z"/><path class="cls-2" d="M33.81,28.22H30.17l-.71,1.68H28.07l3.27-7.27h1.32L36,29.9H34.53Zm-.45-1.06L32,24l-1.36,3.18Z"/><path class="cls-2" d="M41.27,24.65a2.57,2.57,0,0,1,1,1,3.26,3.26,0,0,1,0,3,2.53,2.53,0,0,1-1,1,2.91,2.91,0,0,1-1.45.35A2.27,2.27,0,0,1,38,29.23v2.69h-1.3V24.36H38v.72a2,2,0,0,1,.79-.59,2.77,2.77,0,0,1,1-.2A2.91,2.91,0,0,1,41.27,24.65Zm-.42,3.74a2,2,0,0,0,0-2.52,1.56,1.56,0,0,0-1.18-.47,1.69,1.69,0,0,0-.84.21,1.51,1.51,0,0,0-.59.61,2,2,0,0,0,0,1.82,1.51,1.51,0,0,0,.59.61,1.69,1.69,0,0,0,.84.21A1.6,1.6,0,0,0,40.85,28.39Z"/><path class="cls-2" d="M48.39,24.65a2.57,2.57,0,0,1,1,1,3.26,3.26,0,0,1,0,3,2.53,2.53,0,0,1-1,1,2.91,2.91,0,0,1-1.45.35,2.24,2.24,0,0,1-1.77-.74v2.69h-1.3V24.36H45.1v.72a2,2,0,0,1,.8-.59,2.68,2.68,0,0,1,1-.2A2.91,2.91,0,0,1,48.39,24.65ZM48,28.39a1.92,1.92,0,0,0,0-2.52,1.54,1.54,0,0,0-1.17-.47,1.7,1.7,0,0,0-.85.21,1.58,1.58,0,0,0-.59.61,2,2,0,0,0,0,1.82,1.58,1.58,0,0,0,.59.61,1.7,1.7,0,0,0,.85.21A1.57,1.57,0,0,0,48,28.39Z"/><path class="cls-2" d="M54.61,29.77a3.29,3.29,0,0,1-1.24-.64l.46-1.05a3.69,3.69,0,0,0,1.1.58,3.94,3.94,0,0,0,1.3.22,2.18,2.18,0,0,0,1.21-.26.77.77,0,0,0,.4-.68.64.64,0,0,0-.22-.51,1.44,1.44,0,0,0-.57-.32c-.23-.08-.54-.16-.93-.26a9.45,9.45,0,0,1-1.35-.4,2.22,2.22,0,0,1-.88-.61,1.7,1.7,0,0,1-.37-1.14,2,2,0,0,1,.33-1.1,2.26,2.26,0,0,1,1-.78,4,4,0,0,1,1.61-.29,5.29,5.29,0,0,1,1.31.17,3.75,3.75,0,0,1,1.11.47l-.43,1a4.09,4.09,0,0,0-1-.42,3.64,3.64,0,0,0-1-.15,2.12,2.12,0,0,0-1.19.27.84.84,0,0,0-.39.72.68.68,0,0,0,.23.51,1.57,1.57,0,0,0,.56.31c.23.07.54.16.94.26a8.25,8.25,0,0,1,1.32.39,2.22,2.22,0,0,1,.89.61,1.62,1.62,0,0,1,.37,1.13,1.92,1.92,0,0,1-.33,1.09,2.14,2.14,0,0,1-1,.77,3.91,3.91,0,0,1-1.62.3A5.48,5.48,0,0,1,54.61,29.77Z"/><path class="cls-2" d="M63.72,29.6a1.55,1.55,0,0,1-.56.28,2.56,2.56,0,0,1-.69.09,2,2,0,0,1-1.41-.47,1.86,1.86,0,0,1-.5-1.39V25.44h-.91v-1h.91V23.13h1.3V24.4h1.48v1H61.86v2.63a.89.89,0,0,0,.2.62.74.74,0,0,0,.57.21,1.17,1.17,0,0,0,.73-.22Z"/><path class="cls-2" d="M65.58,29.61a2.71,2.71,0,0,1-1.06-1,2.87,2.87,0,0,1-.38-1.47,2.81,2.81,0,0,1,.38-1.46,2.71,2.71,0,0,1,1.06-1,3.15,3.15,0,0,1,1.51-.37,3.21,3.21,0,0,1,1.53.37,2.62,2.62,0,0,1,1,1,2.72,2.72,0,0,1,.38,1.46,2.78,2.78,0,0,1-.38,1.47,2.62,2.62,0,0,1-1,1,3.2,3.2,0,0,1-1.53.36A3.15,3.15,0,0,1,65.58,29.61Zm2.7-1.22a2,2,0,0,0,0-2.52,1.73,1.73,0,0,0-2.37,0,2,2,0,0,0,0,2.52,1.73,1.73,0,0,0,2.37,0Z"/><path class="cls-2" d="M74.51,24.29v1.24l-.3,0a1.6,1.6,0,0,0-1.19.44,1.77,1.77,0,0,0-.42,1.27V29.9H71.3V24.36h1.23v.81A2.18,2.18,0,0,1,74.51,24.29Z"/><path class="cls-2" d="M80.75,27.54H76.4a1.5,1.5,0,0,0,.59,1,2,2,0,0,0,1.2.35,2,2,0,0,0,1.51-.6l.69.8a2.4,2.4,0,0,1-.94.68,3.83,3.83,0,0,1-2.9-.14,2.61,2.61,0,0,1-1.07-1,2.78,2.78,0,0,1-.38-1.47,2.86,2.86,0,0,1,.37-1.46,2.54,2.54,0,0,1,1-1A3,3,0,0,1,78,24.29a2.89,2.89,0,0,1,1.45.36,2.56,2.56,0,0,1,1,1,3,3,0,0,1,.36,1.5C80.77,27.25,80.76,27.38,80.75,27.54ZM76.91,25.7a1.53,1.53,0,0,0-.52,1h3.14a1.47,1.47,0,0,0-.51-1A1.53,1.53,0,0,0,78,25.33,1.6,1.6,0,0,0,76.91,25.7Z"/></svg>